<svg xmlns="http://www.w3.org/2000/svg" xmlns:xlink="http://www.w3.org/1999/xlink" viewBox="0 0 101.303 75.977"><defs><style>.a{fill:url(#a);}</style><linearGradient id="a" x1="1.505" y1="-0.726" x2="-0.093" y2="1.155" gradientUnits="objectBoundingBox"><stop offset="0" stop-color="#93f9b9"/><stop offset="0.072" stop-color="#8bf2b4"/><stop offset="1" stop-color="#1d976c"/></linearGradient></defs><path class="a" d="M99.383,89.088a1.191,1.191,0,0,1,1.919.93V130.48a9.5,9.5,0,0,1-9.5,9.5H9.5a9.5,9.5,0,0,1-9.5-9.5V90.038a1.183,1.183,0,0,1,1.919-.93c4.432,3.443,10.308,7.815,30.49,22.477,4.175,3.047,11.218,9.458,18.242,9.418,7.063.059,14.246-6.49,18.262-9.418C89.095,96.923,94.951,92.531,99.383,89.088ZM50.651,114.651c4.59.079,11.2-5.777,14.523-8.191C91.43,87.406,93.428,85.744,99.482,81a4.735,4.735,0,0,0,1.82-3.739V73.5a9.5,9.5,0,0,0-9.5-9.5H9.5A9.5,9.5,0,0,0,0,73.5v3.759A4.764,4.764,0,0,0,1.82,81c6.054,4.729,8.053,6.411,34.308,25.464C39.453,108.874,46.061,114.73,50.651,114.651Z" transform="translate(0 -64)"/></svg>