<svg xmlns="http://www.w3.org/2000/svg" xmlns:xlink="http://www.w3.org/1999/xlink" viewBox="0 0 800 350"><defs><style>.a{clip-path:url(#l);}.b,.i{fill:#262626;}.c{fill:url(#a);}.d{fill:#93f9b9;opacity:0.04;}.e{fill:url(#b);}.f{fill:url(#e);}.g{fill:#1d976c;}.h{fill:url(#j);}.i{font-size:52px;}.i,.j,.k{font-family:SegoeUI-Bold, Segoe UI;font-weight:700;letter-spacing:0.05em;}.j{fill:#33c171;font-size:36px;}.k,.m{fill:#565656;}.k{font-size:16px;}.l{fill:#3fa876;}.m{font-size:8px;font-family:SegoeUI, Segoe UI;letter-spacing:0.01em;}.n{fill:#222;}.o{filter:url(#h);}.p{filter:url(#f);}.q{filter:url(#c);}</style><linearGradient id="a" x1="1.126" y1="-2.49" x2="0.163" y2="0.761" gradientUnits="objectBoundingBox"><stop offset="0" stop-color="#93f9b9"/><stop offset="1" stop-color="#1d976c"/></linearGradient><linearGradient id="b" x1="1.494" y1="-0.591" x2="0.4" y2="0.444" xlink:href="#a"/><filter id="c" x="71" y="204" width="87.712" height="87.712" filterUnits="userSpaceOnUse"><feOffset dy="3" input="SourceAlpha"/><feGaussianBlur stdDeviation="3" result="d"/><feFlood flood-opacity="0.161"/><feComposite operator="in" in2="d"/><feComposite in="SourceGraphic"/></filter><linearGradient id="e" x1="1.336" y1="-0.191" x2="-0.454" y2="1.378" xlink:href="#a"/><filter id="f" x="92.634" y="217.313" width="45.162" height="49.042" filterUnits="userSpaceOnUse"><feOffset dy="3" input="SourceAlpha"/><feGaussianBlur stdDeviation="3" result="g"/><feFlood flood-opacity="0.161"/><feComposite operator="in" in2="g"/><feComposite in="SourceGraphic"/></filter><filter id="h" x="153.145" y="204" width="87.712" height="87.712" filterUnits="userSpaceOnUse"><feOffset dy="3" input="SourceAlpha"/><feGaussianBlur stdDeviation="3" result="i"/><feFlood flood-opacity="0.161"/><feComposite operator="in" in2="i"/><feComposite in="SourceGraphic"/></filter><linearGradient id="j" x1="1.185" y1="-0.165" x2="0.5" y2="1" xlink:href="#a"/><clipPath id="l"><rect width="800" height="350"/></clipPath></defs><g id="k" class="a"><rect class="n" width="800" height="350"/><path class="b" d="M6220,160.592s31.879-2.388,74.349,32.132,131.781-49.487,251.7,19.749,147.723,58.161,147.723,58.161H6220V160.592Z" transform="translate(-6219.773 75.936)"/><path class="c" d="M6220,146.69s32.837,77.685,114.093,77.685,78.985-65.552,191.313,0,138.369,55.066,138.369,55.066H6220V146.69Z" transform="translate(-6221.042 69.943)"/><path class="d" d="M6240.158,151.444s-11.132,32.022,33.839,32.022,52.862-24.96,115.031,10.932,76.582,30.151,76.582,30.151H6220V168.886l28.561-12.219Z" transform="translate(-6247 123.122)"/><rect class="b" width="236" height="93" transform="matrix(0.883, -0.469, 0.469, 0.883, -89.018, 10.841)"/><g transform="translate(231.211 13.119)"><path class="b" d="M883.874-9.074C888.453-4.4,905.1,84.175,965.637,58.633s37.53,11.605,70.705,29.754,17.511,35.725,60.462,36.157,60.465,54.791,38.572,68.714-35.488,73.858,2.7,76.355,73.439,33.915,73.439,33.915V-13.119Z" transform="translate(-642.731 0)"/><path class="e" d="M829.461-13.119c4.3,4.676,33.641,90.611,90.5,65.069s27.018,13.6,58.18,31.753,26.123,40.41,66.468,40.842,56.8,54.791,36.232,68.714-29.628,65.485,6.246,67.982,65.276,41.115,65.276,41.115V-13.119Z" transform="translate(-583.579 0)"/><path class="d" d="M829.461-13.119c1.882,4.676,14.718,90.611,39.594,65.069s11.82,13.6,25.453,31.753,11.429,40.41,29.079,40.842,24.848,54.791,15.851,68.714-12.962,65.485,2.733,67.982,28.558,41.115,28.558,41.115V-13.119Z" transform="translate(-401.941 0)"/></g><g transform="translate(0 -47)"><g transform="translate(-375 91)"><g transform="translate(455 166)"><g class="q" transform="matrix(1, 0, 0, 1, -80, -210)"><path class="b" d="M0,0H69.712V69.712H0Z" transform="translate(80 210)"/></g><g transform="translate(15.025 13.313)"><g class="p" transform="matrix(1, 0, 0, 1, -95.02, -223.31)"><path class="f" d="M18.02,14.745a1.589,1.589,0,1,1-1.583-1.723A1.654,1.654,0,0,1,18.02,14.745Zm-7.248-1.723a1.729,1.729,0,0,0,0,3.446,1.654,1.654,0,0,0,1.583-1.723A1.644,1.644,0,0,0,10.772,13.022ZM27.162,3.2V31.042c-3.91-3.455-2.66-2.312-7.2-6.534l.823,2.871H3.182A3.189,3.189,0,0,1,0,24.182V3.2A3.189,3.189,0,0,1,3.182,0h20.8A3.189,3.189,0,0,1,27.162,3.2ZM22.738,17.911A20.785,20.785,0,0,0,20.5,8.862a7.675,7.675,0,0,0-4.361-1.63l-.217.248a10.33,10.33,0,0,1,3.865,1.971A13.188,13.188,0,0,0,8.2,9c-.574.264-.916.45-.916.45a10.471,10.471,0,0,1,4.082-2.033l-.155-.186a7.675,7.675,0,0,0-4.361,1.63A20.785,20.785,0,0,0,4.61,17.911,5.627,5.627,0,0,0,9.344,20.27s.574-.7,1.04-1.288a4.827,4.827,0,0,1-2.716-1.831c.228.16.6.367.636.388a11.314,11.314,0,0,0,9.685.543,8.882,8.882,0,0,0,1.785-.916,4.9,4.9,0,0,1-2.809,1.847c.466.59,1.024,1.257,1.024,1.257a5.674,5.674,0,0,0,4.749-2.359Z" transform="translate(101.63 223.31)"/></g><path class="g" d="M-19.344-.995h-1.144l-.332-1.037h-1.658l-.328,1.037h-1.138l1.7-4.661H-21ZM-21.06-2.837l-.5-1.567a2.041,2.041,0,0,1-.078-.419h-.026a1.778,1.778,0,0,1-.081.406l-.507,1.58Zm4.409,1.8a1.518,1.518,0,0,1-.686.12q-1.086,0-1.086-1.128V-3.565h-.54v-.757h.54v-.718l1.024-.293v1.011h.748v.757H-17.4V-2.22q0,.52.413.52a.7.7,0,0,0,.335-.094Zm4.106.039h-1.024V-2.886q0-.731-.533-.731a.546.546,0,0,0-.442.2.79.79,0,0,0-.169.52v1.9H-15.74V-5.922h1.027v2.093h.013A1.167,1.167,0,0,1-13.676-4.4q1.131,0,1.131,1.365ZM-8.23-4.323-9.582-.728q-.488,1.3-1.469,1.3a1.882,1.882,0,0,1-.614-.085V-.335a.864.864,0,0,0,.445.12.556.556,0,0,0,.553-.374L-10.493-1l-1.352-3.322h1.138l.621,2.025A2.631,2.631,0,0,1-10-1.853h.013a3.1,3.1,0,0,1,.107-.439l.627-2.031Zm.528,3.24v-.832a2.187,2.187,0,0,0,.505.228,1.676,1.676,0,0,0,.476.075,1.021,1.021,0,0,0,.431-.075.242.242,0,0,0,.158-.228A.21.21,0,0,0-6.2-2.077a.665.665,0,0,0-.184-.114,2.084,2.084,0,0,0-.245-.088q-.133-.039-.257-.088a2.46,2.46,0,0,1-.349-.161,1.01,1.01,0,0,1-.254-.2.786.786,0,0,1-.156-.263A1.051,1.051,0,0,1-7.7-3.344a.912.912,0,0,1,.122-.481,1,1,0,0,1,.325-.33,1.485,1.485,0,0,1,.465-.189,2.423,2.423,0,0,1,.544-.06A3.021,3.021,0,0,1-5.8-4.37a3.348,3.348,0,0,1,.449.1v.793a1.621,1.621,0,0,0-.418-.171A1.762,1.762,0,0,0-6.2-3.705a.969.969,0,0,0-.19.018.626.626,0,0,0-.158.052.289.289,0,0,0-.107.088.2.2,0,0,0-.039.122.225.225,0,0,0,.059.156.508.508,0,0,0,.153.112,1.508,1.508,0,0,0,.21.085L-6.048-3a2.979,2.979,0,0,1,.371.156,1.185,1.185,0,0,1,.284.2.779.779,0,0,1,.182.267.947.947,0,0,1,.063.364.95.95,0,0,1-.128.505,1.028,1.028,0,0,1-.341.341,1.548,1.548,0,0,1-.491.192,2.721,2.721,0,0,1-.577.06A2.974,2.974,0,0,1-7.7-1.082ZM-.833-4.469l-.127.585h-.6l-.179.806h.673l-.146.585h-.647l-.254,1.125h-.65l.237-1.125h-.744l-.241,1.125h-.65l.231-1.125h-.6l.12-.585H-3.8l.172-.806h-.657l.111-.585h.666l.241-1.157H-2.6l-.241,1.157H-2.1l.247-1.157h.66l-.241,1.157Zm-1.385.585h-.754l-.179.806H-2.4Zm5.371.335a4.134,4.134,0,0,1-.137,1.11,2.381,2.381,0,0,1-.4.827,1.758,1.758,0,0,1-.639.518,1.956,1.956,0,0,1-.855.18A2.429,2.429,0,0,1,.14-1.1V-1.94a1.578,1.578,0,0,0,.884.241,1.018,1.018,0,0,0,.829-.361,1.609,1.609,0,0,0,.3-1.043l-.02-.007a1.055,1.055,0,0,1-.939.458,1.289,1.289,0,0,1-.528-.107,1.269,1.269,0,0,1-.419-.3A1.359,1.359,0,0,1-.028-3.51a1.63,1.63,0,0,1-.1-.579,1.8,1.8,0,0,1,.12-.67,1.533,1.533,0,0,1,.336-.52,1.484,1.484,0,0,1,.518-.336,1.818,1.818,0,0,1,.67-.119,1.533,1.533,0,0,1,.683.148,1.434,1.434,0,0,1,.515.427,2,2,0,0,1,.325.686A3.475,3.475,0,0,1,3.153-3.549ZM2.116-4.1a1.208,1.208,0,0,0-.046-.336A.885.885,0,0,0,1.943-4.7a.617.617,0,0,0-.2-.18.51.51,0,0,0-.257-.067.522.522,0,0,0-.245.059.6.6,0,0,0-.193.161.762.762,0,0,0-.127.245,1.013,1.013,0,0,0-.046.309,1.055,1.055,0,0,0,.046.323.691.691,0,0,0,.128.239.539.539,0,0,0,.2.148.651.651,0,0,0,.26.05.558.558,0,0,0,.247-.054.6.6,0,0,0,.19-.145.655.655,0,0,0,.124-.215A.791.791,0,0,0,2.116-4.1ZM4.161-1.147v-.894A1.8,1.8,0,0,0,5.254-1.7a.983.983,0,0,0,.613-.169.561.561,0,0,0,.219-.471.536.536,0,0,0-.271-.481,1.406,1.406,0,0,0-.746-.169H4.636v-.787h.4q.91,0,.91-.6,0-.569-.7-.569a1.593,1.593,0,0,0-.91.3v-.839a2.513,2.513,0,0,1,1.144-.247,1.727,1.727,0,0,1,1.113.322,1.024,1.024,0,0,1,.4.835,1.086,1.086,0,0,1-.926,1.144v.016a1.259,1.259,0,0,1,.78.359,1.013,1.013,0,0,1,.286.73,1.251,1.251,0,0,1-.478,1.034,2.066,2.066,0,0,1-1.32.38A2.55,2.55,0,0,1,4.161-1.147Zm6.876-4.508v2.938H11.6v.767h-.559v.956H10.1V-1.95H8.07v-.8q.27-.3.559-.661t.559-.739q.27-.38.5-.765a7.673,7.673,0,0,0,.395-.736ZM8.989-2.717H10.1V-4.346q-.114.211-.247.427t-.28.426q-.146.21-.3.406T8.989-2.717ZM15.66-5.064q-.312.562-.559,1.055t-.436.972a9.165,9.165,0,0,0-.322.975,9.418,9.418,0,0,0-.218,1.068H13.053a8.775,8.775,0,0,1,.241-1.047,9.815,9.815,0,0,1,.346-.977q.2-.473.436-.921t.505-.878H12.416v-.839H15.66Z" transform="translate(23.943 42.424)"/></g></g><g transform="translate(537.144 166)"><g class="o" transform="matrix(1, 0, 0, 1, -162.14, -210)"><path class="b" d="M0,0H69.712V69.712H0Z" transform="translate(162.14 210)"/></g><g transform="translate(5.731 9.153)"><path class="g" d="M-71.112-1.082v-.832a2.187,2.187,0,0,0,.505.228,1.676,1.676,0,0,0,.476.075,1.021,1.021,0,0,0,.431-.075.242.242,0,0,0,.158-.228.211.211,0,0,0-.072-.163.665.665,0,0,0-.184-.114,2.083,2.083,0,0,0-.245-.088q-.133-.039-.257-.088a2.461,2.461,0,0,1-.349-.161,1.01,1.01,0,0,1-.254-.2.786.786,0,0,1-.156-.263,1.051,1.051,0,0,1-.054-.354.912.912,0,0,1,.122-.481,1,1,0,0,1,.325-.33,1.485,1.485,0,0,1,.465-.189,2.424,2.424,0,0,1,.544-.06,3.021,3.021,0,0,1,.449.034,3.348,3.348,0,0,1,.449.1v.793a1.621,1.621,0,0,0-.418-.171,1.762,1.762,0,0,0-.437-.057.969.969,0,0,0-.19.018.626.626,0,0,0-.158.052.289.289,0,0,0-.107.088.2.2,0,0,0-.039.122.225.225,0,0,0,.059.156.508.508,0,0,0,.153.112,1.508,1.508,0,0,0,.21.085l.229.076a2.979,2.979,0,0,1,.371.156,1.185,1.185,0,0,1,.284.2.779.779,0,0,1,.182.267.947.947,0,0,1,.063.364.949.949,0,0,1-.128.505,1.028,1.028,0,0,1-.341.341,1.548,1.548,0,0,1-.491.192,2.721,2.721,0,0,1-.577.06A2.974,2.974,0,0,1-71.112-1.082Zm6.674.088h-1.024V-2.886q0-.731-.533-.731a.546.546,0,0,0-.442.2.79.79,0,0,0-.169.52v1.9h-1.027V-5.922h1.027v2.093h.013A1.167,1.167,0,0,1-65.569-4.4q1.131,0,1.131,1.365Zm3.915,0h-.972v-.478h-.013a1.085,1.085,0,0,1-.991.559,1.037,1.037,0,0,1-.762-.275.984.984,0,0,1-.278-.733q0-.969,1.147-1.118l.9-.12q0-.546-.592-.546a2.019,2.019,0,0,0-1.131.354v-.774a2.545,2.545,0,0,1,.587-.2,3.084,3.084,0,0,1,.678-.085,1.257,1.257,0,0,1,1.424,1.42Zm-.965-1.352v-.224l-.6.078q-.5.065-.5.452a.373.373,0,0,0,.122.288.468.468,0,0,0,.33.112.608.608,0,0,0,.471-.2A.722.722,0,0,0-61.488-2.347Zm5.273,1.352h-1.024V-1.5h-.016a1.161,1.161,0,0,1-1.017.588q-1.157,0-1.157-1.4V-4.323h1.024v1.918q0,.705.559.705a.553.553,0,0,0,.442-.193.78.78,0,0,0,.166-.525v-1.9h1.024Zm4.412,0h-1.024V-2.844q0-.774-.553-.774a.548.548,0,0,0-.439.2.78.78,0,0,0-.172.52v1.9h-1.027V-4.323h1.027V-3.8h.013A1.177,1.177,0,0,1-52.909-4.4q1.105,0,1.105,1.372Zm3.668-.12a2.031,2.031,0,0,1-1,.2,1.7,1.7,0,0,1-1.242-.465,1.605,1.605,0,0,1-.475-1.2,1.768,1.768,0,0,1,.509-1.337,1.88,1.88,0,0,1,1.36-.489,1.745,1.745,0,0,1,.852.156v.871a1.171,1.171,0,0,0-.718-.241.946.946,0,0,0-.7.258.964.964,0,0,0-.258.713.948.948,0,0,0,.247.694.908.908,0,0,0,.679.252,1.356,1.356,0,0,0,.751-.241Zm4.2.12h-1.024V-2.886q0-.731-.533-.731a.546.546,0,0,0-.442.2.79.79,0,0,0-.169.52v1.9H-47.13V-5.922H-46.1v2.093h.013A1.167,1.167,0,0,1-45.066-4.4q1.131,0,1.131,1.365Zm3.915,0h-.972v-.478h-.013A1.085,1.085,0,0,1-42-.913a1.037,1.037,0,0,1-.762-.275.984.984,0,0,1-.278-.733q0-.969,1.147-1.118l.9-.12q0-.546-.592-.546a2.019,2.019,0,0,0-1.131.354v-.774a2.545,2.545,0,0,1,.587-.2,3.084,3.084,0,0,1,.678-.085,1.257,1.257,0,0,1,1.424,1.42Zm-.965-1.352v-.224l-.6.078q-.5.065-.5.452a.373.373,0,0,0,.122.288.468.468,0,0,0,.33.112.608.608,0,0,0,.471-.2A.722.722,0,0,0-40.986-2.347Zm5.325,1.352h-1.024V-2.844q0-.774-.553-.774a.548.548,0,0,0-.439.2.78.78,0,0,0-.172.52v1.9h-1.027V-4.323h1.027V-3.8h.013A1.177,1.177,0,0,1-36.766-4.4q1.105,0,1.105,1.372Zm4.4,0h-1.027v-.458H-32.3a1.152,1.152,0,0,1-1.03.54,1.262,1.262,0,0,1-1-.44,1.823,1.823,0,0,1-.38-1.23,1.984,1.984,0,0,1,.419-1.323,1.368,1.368,0,0,1,1.1-.5.935.935,0,0,1,.9.462h.013V-5.922h1.027Zm-1.008-1.619v-.25a.788.788,0,0,0-.189-.54.623.623,0,0,0-.491-.215.619.619,0,0,0-.533.268,1.245,1.245,0,0,0-.192.736,1.077,1.077,0,0,0,.185.676.615.615,0,0,0,.514.237.618.618,0,0,0,.509-.25A1.043,1.043,0,0,0-32.266-2.613Zm5.2.247h-2.171q.052.725.913.725a1.783,1.783,0,0,0,.965-.26v.741a2.536,2.536,0,0,1-1.2.247,1.688,1.688,0,0,1-1.251-.447,1.688,1.688,0,0,1-.445-1.246,1.781,1.781,0,0,1,.481-1.313A1.6,1.6,0,0,1-28.6-4.4a1.455,1.455,0,0,1,1.126.432,1.665,1.665,0,0,1,.4,1.173ZM-28.024-3q0-.715-.579-.715a.552.552,0,0,0-.427.2.929.929,0,0,0-.219.51Zm4.067-.4a.891.891,0,0,0-.432-.1.623.623,0,0,0-.523.245,1.071,1.071,0,0,0-.189.668V-.995h-1.027V-4.323H-25.1v.618h.013a.889.889,0,0,1,.878-.676.661.661,0,0,1,.254.039Zm.736,2.483a.6.6,0,0,1-.423-.156.5.5,0,0,1-.169-.384.483.483,0,0,1,.174-.384.642.642,0,0,1,.434-.15.618.618,0,0,1,.431.151.492.492,0,0,1,.167.382.5.5,0,0,1-.171.388A.644.644,0,0,1-23.22-.913Zm6.963-.081h-1.024v-1.9q0-.725-.533-.725a.49.49,0,0,0-.413.218.9.9,0,0,0-.159.543V-.995h-1.027V-2.912q0-.705-.523-.705a.5.5,0,0,0-.421.208.915.915,0,0,0-.158.566V-.995h-1.027V-4.323h1.027v.52h.013a1.228,1.228,0,0,1,.447-.434,1.228,1.228,0,0,1,.629-.167.958.958,0,0,1,.965.621A1.231,1.231,0,0,1-17.343-4.4q1.086,0,1.086,1.339Zm4.136-1.372h-2.171q.052.725.913.725a1.783,1.783,0,0,0,.965-.26v.741a2.536,2.536,0,0,1-1.2.247,1.688,1.688,0,0,1-1.251-.447,1.688,1.688,0,0,1-.445-1.246,1.781,1.781,0,0,1,.481-1.313A1.6,1.6,0,0,1-13.646-4.4a1.455,1.455,0,0,1,1.126.432,1.665,1.665,0,0,1,.4,1.173ZM-13.074-3q0-.715-.579-.715a.552.552,0,0,0-.427.2A.929.929,0,0,0-14.3-3Z" transform="translate(71.112 50.689)"/><path class="h" d="M24.121,18.9C23.082,12.495,20.63,8,17.777,8s-5.3,4.495-6.344,10.9ZM10.9,25.777a44.93,44.93,0,0,0,.237,4.588H24.415a44.93,44.93,0,0,0,.237-4.588,44.93,44.93,0,0,0-.237-4.588H11.132A44.93,44.93,0,0,0,10.9,25.777ZM34.171,18.9A17.815,17.815,0,0,0,22.845,8.746c1.749,2.423,2.953,6.072,3.584,10.15ZM12.7,8.746A17.8,17.8,0,0,0,1.383,18.9H9.125c.624-4.079,1.828-7.727,3.577-10.15ZM34.938,21.19H26.716c.151,1.505.237,3.047.237,4.588s-.086,3.082-.237,4.588h8.215a17.624,17.624,0,0,0,.616-4.588,17.932,17.932,0,0,0-.609-4.588ZM8.6,25.777c0-1.541.086-3.082.237-4.588H.616a17.379,17.379,0,0,0,0,9.175H8.831C8.688,28.86,8.6,27.319,8.6,25.777Zm2.831,6.882c1.039,6.4,3.491,10.9,6.344,10.9s5.3-4.495,6.344-10.9Zm11.419,10.15a17.832,17.832,0,0,0,11.326-10.15H26.437C25.806,36.738,24.6,40.387,22.853,42.809ZM1.383,32.659a17.815,17.815,0,0,0,11.326,10.15c-1.749-2.423-2.953-6.072-3.584-10.15H1.383Z" transform="translate(11.742 -8)"/></g></g></g><g transform="translate(0 -19)"><text class="i" transform="translate(56 192)"><tspan x="0" y="0">Shaun</tspan></text><text class="j" transform="translate(80 196)"><tspan x="0" y="0">Shaun</tspan></text><text class="k" transform="translate(80 227)"><tspan x="0" y="0">Professional front-end web developer,</tspan><tspan x="0" y="21">mentor, and owner of Syncore</tspan></text></g></g><g transform="translate(575.631 328)"><path class="l" d="M18.151,12.667A8.34,8.34,0,0,0,14.938,28.7l.626-1.008a7.159,7.159,0,1,1,2.587.492l-.035,0,6.093-9.892H20L18.81,20.216h0l-.4.647-.038.059-.785,1.267h0l-.607.977L14.7,19.5l1.363,0,.408.654,1.471,0L16.74,18.294H12.532l3.733,6.019,0,0,.711,1.148.713-1.151h0l.683-1.1,0,0,2.3-3.714h1.363l-5.651,9.1.029.012-.294.473a8.336,8.336,0,1,0,2.029-16.421Z" transform="translate(-9.811 -12.667)"/></g><text class="m" transform="translate(597 340)"><tspan x="0" y="0">Syncore. All Rights Reserved 2018.</tspan></text></g></svg>