<svg xmlns="http://www.w3.org/2000/svg" xmlns:xlink="http://www.w3.org/1999/xlink" viewBox="0 0 500 100"><defs><style>.a{clip-path:url(#l);}.b{fill:#262626;}.c{fill:#1d976c;}.d{fill:url(#c);}.e{fill:url(#f);}.f{fill:url(#i);}.g{fill:#93f9b9;opacity:0.04;}.h{fill:url(#j);}.i{fill:#33c171;}.j,.l{fill:#5c5c5c;}.k{fill:#3fa876;}.l{font-size:4px;font-family:SegoeUI-Bold, Segoe UI;font-weight:700;letter-spacing:0.01em;}.m{fill:#222;}.n{filter:url(#g);}.o{filter:url(#d);}.p{filter:url(#a);}</style><filter id="a" x="323.371" y="19" width="67.542" height="67.542" filterUnits="userSpaceOnUse"><feOffset dy="3" input="SourceAlpha"/><feGaussianBlur stdDeviation="3" result="b"/><feFlood flood-opacity="0.161"/><feComposite operator="in" in2="b"/><feComposite in="SourceGraphic"/></filter><linearGradient id="c" x1="1.185" y1="-0.165" x2="0.5" y2="1" gradientUnits="objectBoundingBox"><stop offset="0" stop-color="#93f9b9"/><stop offset="1" stop-color="#1d976c"/></linearGradient><filter id="d" x="246" y="19" width="67.542" height="67.542" filterUnits="userSpaceOnUse"><feOffset dy="3" input="SourceAlpha"/><feGaussianBlur stdDeviation="3" result="e"/><feFlood flood-opacity="0.161"/><feComposite operator="in" in2="e"/><feComposite in="SourceGraphic"/></filter><linearGradient id="f" x1="1.336" y1="-0.191" x2="-0.454" y2="1.378" xlink:href="#c"/><filter id="g" x="261.538" y="29.067" width="37.36" height="39.683" filterUnits="userSpaceOnUse"><feOffset dy="3" input="SourceAlpha"/><feGaussianBlur stdDeviation="3" result="h"/><feFlood flood-opacity="0.161"/><feComposite operator="in" in2="h"/><feComposite in="SourceGraphic"/></filter><linearGradient id="i" x1="-0.574" y1="3.914" x2="0.786" y2="-0.296" gradientUnits="objectBoundingBox"><stop offset="0" stop-color="#93f9b9"/><stop offset="0.097" stop-color="#93f9b9"/><stop offset="1" stop-color="#1d976c"/></linearGradient><linearGradient id="j" x1="1.126" y1="-2.49" x2="0.163" y2="0.761" xlink:href="#c"/><clipPath id="l"><rect width="500" height="100"/></clipPath></defs><g id="k" class="a"><rect class="m" width="500" height="100"/><path class="b" d="M0,34.119S37.007,86.91,69.012,75.972s37.159-27.437,58.67,0,65.8,3.184,65.8,3.184V2.957L5.171,0Z" transform="translate(429.127 -77.702) rotate(47)"/><path class="b" d="M0,0H180.207V56.289H0Z" transform="matrix(0.883, -0.469, 0.469, 0.883, -66.158, 0.3)"/><g transform="translate(0 2)"><g class="p" transform="matrix(1, 0, 0, 1, 0, -2)"><path class="b" d="M0,0H49.542V49.542H0Z" transform="translate(332.37 25)"/></g><g transform="translate(336.243 34.616)"><g transform="translate(0 0)"><path class="c" d="M-71.112-2.483v-.591a1.554,1.554,0,0,0,.359.162,1.191,1.191,0,0,0,.338.053.726.726,0,0,0,.306-.053A.172.172,0,0,0-70-3.074a.15.15,0,0,0-.051-.115.472.472,0,0,0-.131-.081,1.481,1.481,0,0,0-.174-.062q-.095-.028-.182-.062a1.748,1.748,0,0,1-.248-.114.718.718,0,0,1-.18-.142.558.558,0,0,1-.111-.187.746.746,0,0,1-.038-.252.648.648,0,0,1,.087-.342.708.708,0,0,1,.231-.234,1.055,1.055,0,0,1,.33-.134,1.722,1.722,0,0,1,.387-.043,2.147,2.147,0,0,1,.319.024,2.379,2.379,0,0,1,.319.07v.564a1.152,1.152,0,0,0-.3-.121,1.252,1.252,0,0,0-.311-.04.688.688,0,0,0-.135.013.445.445,0,0,0-.112.037.206.206,0,0,0-.076.062.144.144,0,0,0-.028.087.16.16,0,0,0,.042.111.361.361,0,0,0,.109.08,1.072,1.072,0,0,0,.149.06l.163.054a2.118,2.118,0,0,1,.263.111.842.842,0,0,1,.2.141.553.553,0,0,1,.129.189.673.673,0,0,1,.045.259.675.675,0,0,1-.091.359.731.731,0,0,1-.243.243,1.1,1.1,0,0,1-.349.136,1.933,1.933,0,0,1-.41.043A2.114,2.114,0,0,1-71.112-2.483Zm4.743.062H-67.1V-3.765q0-.52-.379-.52a.388.388,0,0,0-.314.146.561.561,0,0,0-.12.37V-2.42h-.73v-3.5h.73v1.488h.009a.829.829,0,0,1,.728-.409q.8,0,.8.97Zm2.782,0h-.691v-.34h-.009a.771.771,0,0,1-.7.4.737.737,0,0,1-.542-.2.7.7,0,0,1-.2-.521q0-.688.815-.795l.642-.085q0-.388-.42-.388a1.435,1.435,0,0,0-.8.252v-.55a1.808,1.808,0,0,1,.417-.139,2.192,2.192,0,0,1,.482-.06.893.893,0,0,1,1.012,1.009Zm-.686-.961V-3.54l-.43.055q-.356.046-.356.321a.265.265,0,0,0,.087.2.333.333,0,0,0,.234.08.432.432,0,0,0,.335-.142A.513.513,0,0,0-64.273-3.381Zm3.747.961h-.728v-.36h-.012a.825.825,0,0,1-.723.418q-.822,0-.822-1V-4.785h.728v1.363q0,.5.4.5a.393.393,0,0,0,.314-.137.554.554,0,0,0,.118-.373V-4.785h.728Zm3.135,0h-.728V-3.734q0-.55-.393-.55a.39.39,0,0,0-.312.146.554.554,0,0,0-.122.37V-2.42h-.73V-4.785h.73v.374h.009a.836.836,0,0,1,.76-.432q.785,0,.785.975Zm2.606-.085a1.443,1.443,0,0,1-.714.143,1.207,1.207,0,0,1-.882-.33,1.141,1.141,0,0,1-.337-.852,1.257,1.257,0,0,1,.361-.95,1.336,1.336,0,0,1,.967-.348,1.24,1.24,0,0,1,.605.111v.619a.832.832,0,0,0-.51-.171.673.673,0,0,0-.5.184.685.685,0,0,0-.184.507A.674.674,0,0,0-55.8-3.1a.645.645,0,0,0,.483.179.963.963,0,0,0,.534-.171Zm2.985.085h-.728V-3.765q0-.52-.379-.52a.388.388,0,0,0-.314.146.561.561,0,0,0-.12.37V-2.42h-.73v-3.5h.73v1.488h.009a.829.829,0,0,1,.728-.409q.8,0,.8.97Zm2.782,0h-.691v-.34h-.009a.771.771,0,0,1-.7.4.737.737,0,0,1-.542-.2.7.7,0,0,1-.2-.521q0-.688.815-.795l.642-.085q0-.388-.42-.388a1.435,1.435,0,0,0-.8.252v-.55a1.808,1.808,0,0,1,.417-.139,2.192,2.192,0,0,1,.482-.06.893.893,0,0,1,1.012,1.009Zm-.686-.961V-3.54l-.43.055q-.356.046-.356.321a.265.265,0,0,0,.087.2.333.333,0,0,0,.234.08.432.432,0,0,0,.335-.142A.513.513,0,0,0-49.7-3.381Zm3.784.961h-.728V-3.734q0-.55-.393-.55a.39.39,0,0,0-.312.146.554.554,0,0,0-.122.37V-2.42h-.73V-4.785h.73v.374h.009a.836.836,0,0,1,.76-.432q.785,0,.785.975Zm3.128,0h-.73v-.326h-.009a.818.818,0,0,1-.732.383.9.9,0,0,1-.714-.313,1.3,1.3,0,0,1-.27-.874,1.41,1.41,0,0,1,.3-.94.972.972,0,0,1,.781-.353.664.664,0,0,1,.638.328h.009V-5.922h.73Zm-.716-1.15v-.178a.56.56,0,0,0-.134-.383.442.442,0,0,0-.349-.152.44.44,0,0,0-.379.191.885.885,0,0,0-.136.523.766.766,0,0,0,.132.48.437.437,0,0,0,.365.169.439.439,0,0,0,.361-.178A.741.741,0,0,0-43.506-3.57Zm3.692.176h-1.543q.037.515.649.515a1.267,1.267,0,0,0,.686-.185v.527a1.8,1.8,0,0,1-.852.176,1.2,1.2,0,0,1-.889-.318,1.2,1.2,0,0,1-.316-.886,1.266,1.266,0,0,1,.342-.933,1.139,1.139,0,0,1,.841-.344,1.034,1.034,0,0,1,.8.307,1.183,1.183,0,0,1,.283.834Zm-.677-.448q0-.508-.411-.508a.393.393,0,0,0-.3.146.66.66,0,0,0-.156.363Zm2.89-.284a.633.633,0,0,0-.307-.072.443.443,0,0,0-.372.174.761.761,0,0,0-.134.475V-2.42h-.73V-4.785h.73v.439h.009a.631.631,0,0,1,.624-.48.47.47,0,0,1,.18.028Zm.523,1.765a.426.426,0,0,1-.3-.111.356.356,0,0,1-.12-.273.343.343,0,0,1,.124-.273.456.456,0,0,1,.308-.106.439.439,0,0,1,.306.107.35.35,0,0,1,.119.271.352.352,0,0,1-.121.276A.458.458,0,0,1-37.077-2.362Zm4.949-.058h-.728V-3.769q0-.515-.379-.515a.348.348,0,0,0-.293.155.636.636,0,0,0-.113.386V-2.42h-.73V-3.783q0-.5-.372-.5a.356.356,0,0,0-.3.148.65.65,0,0,0-.112.4V-2.42h-.73V-4.785h.73v.37h.009a.873.873,0,0,1,.318-.308.873.873,0,0,1,.447-.119.681.681,0,0,1,.686.441.875.875,0,0,1,.795-.441q.771,0,.771.952Zm2.939-.975h-1.543q.037.515.649.515a1.267,1.267,0,0,0,.686-.185v.527a1.8,1.8,0,0,1-.852.176,1.2,1.2,0,0,1-.889-.318,1.2,1.2,0,0,1-.316-.886,1.266,1.266,0,0,1,.342-.933,1.139,1.139,0,0,1,.841-.344,1.034,1.034,0,0,1,.8.307,1.183,1.183,0,0,1,.283.834Zm-.677-.448q0-.508-.411-.508a.393.393,0,0,0-.3.146.66.66,0,0,0-.156.363Z" transform="translate(71.112 28.443)"/><path class="d" d="M13.137,13.933C12.571,10.447,11.235,8,9.682,8s-2.889,2.447-3.455,5.933Zm-7.2,3.747a24.46,24.46,0,0,0,.129,2.5H13.3a24.46,24.46,0,0,0,.129-2.5,24.46,24.46,0,0,0-.129-2.5H6.063A24.46,24.46,0,0,0,5.934,17.68ZM18.61,13.933a9.7,9.7,0,0,0-6.168-5.527,13.172,13.172,0,0,1,1.952,5.527ZM6.918,8.406A9.7,9.7,0,0,0,.753,13.933H4.97A13.118,13.118,0,0,1,6.918,8.406Zm12.11,6.776H14.55c.082.82.129,1.659.129,2.5s-.047,1.678-.129,2.5h4.474a9.594,9.594,0,0,0,.336-2.5,9.762,9.762,0,0,0-.332-2.5ZM4.685,17.68c0-.839.047-1.678.129-2.5H.336a9.461,9.461,0,0,0,0,5H4.81C4.732,19.358,4.685,18.519,4.685,17.68Zm1.542,3.747c.566,3.486,1.9,5.933,3.455,5.933s2.889-2.447,3.455-5.933Zm6.219,5.527a9.711,9.711,0,0,0,6.168-5.527H14.4A13.172,13.172,0,0,1,12.446,26.954ZM.753,21.427a9.7,9.7,0,0,0,6.168,5.527A13.172,13.172,0,0,1,4.97,21.427H.753Z" transform="translate(10.067 -8)"/></g></g><g class="o" transform="matrix(1, 0, 0, 1, 0, -2)"><path class="b" d="M0,0H49.542V49.542H0Z" transform="translate(255 25)"/></g><g transform="translate(265.841 33.067)"><g class="n" transform="matrix(1, 0, 0, 1, -265.84, -35.07)"><path class="e" d="M12.844,10.3a1.131,1.131,0,1,1-1.128-1.2A1.165,1.165,0,0,1,12.844,10.3ZM7.677,9.1a1.206,1.206,0,1,0,1.128,1.2A1.165,1.165,0,0,0,7.677,9.1ZM19.36,2.233V21.683c-2.787-2.414-1.9-1.615-5.133-4.564l.586,2.006H2.268A2.251,2.251,0,0,1,0,16.891V2.233A2.251,2.251,0,0,1,2.268,0H17.092A2.251,2.251,0,0,1,19.36,2.233ZM16.207,12.511A14.3,14.3,0,0,0,14.614,6.19a5.546,5.546,0,0,0-3.109-1.138l-.155.173A7.407,7.407,0,0,1,14.1,6.6a9.572,9.572,0,0,0-8.264-.314c-.409.184-.653.314-.653.314A7.511,7.511,0,0,1,8.1,5.182l-.111-.13A5.546,5.546,0,0,0,4.879,6.19a14.3,14.3,0,0,0-1.593,6.321A4.026,4.026,0,0,0,6.66,14.159s.409-.488.741-.9A3.435,3.435,0,0,1,5.465,11.98c.163.112.431.256.454.271a8.211,8.211,0,0,0,6.9.379,6.38,6.38,0,0,0,1.272-.64,3.487,3.487,0,0,1-2,1.29c.332.412.73.878.73.878a4.059,4.059,0,0,0,3.385-1.648Z" transform="translate(270.54 35.07)"/></g><path class="c" d="M-20.674-2.42h-.813l-.236-.737H-22.9l-.233.737h-.808l1.206-3.312h.885Zm-1.22-1.31-.356-1.113a1.451,1.451,0,0,1-.055-.3h-.018a1.263,1.263,0,0,1-.058.289l-.36,1.123Zm3.133,1.282a1.079,1.079,0,0,1-.487.085q-.771,0-.771-.8V-4.247H-20.4v-.538h.383V-5.3l.728-.208v.718h.531v.538h-.531v.956q0,.37.293.37a.5.5,0,0,0,.238-.067Zm2.918.028h-.728V-3.765q0-.52-.379-.52a.388.388,0,0,0-.314.146.561.561,0,0,0-.12.37V-2.42h-.73v-3.5h.73v1.488h.009a.829.829,0,0,1,.728-.409q.8,0,.8.97Zm3.066-2.365-.961,2.555q-.346.922-1.044.922a1.338,1.338,0,0,1-.437-.06v-.582a.614.614,0,0,0,.316.085.4.4,0,0,0,.393-.266l.125-.293-.961-2.361h.808l.441,1.439a1.87,1.87,0,0,1,.065.316h.009a2.207,2.207,0,0,1,.076-.312l.446-1.444Zm.375,2.3v-.591a1.554,1.554,0,0,0,.359.162,1.191,1.191,0,0,0,.338.053.726.726,0,0,0,.306-.053.172.172,0,0,0,.112-.162.15.15,0,0,0-.051-.115.472.472,0,0,0-.131-.081,1.481,1.481,0,0,0-.174-.062q-.095-.028-.182-.062a1.748,1.748,0,0,1-.248-.114.718.718,0,0,1-.18-.142.558.558,0,0,1-.111-.187A.747.747,0,0,1-12.4-4.09a.648.648,0,0,1,.087-.342.708.708,0,0,1,.231-.234,1.055,1.055,0,0,1,.33-.134,1.722,1.722,0,0,1,.387-.043,2.147,2.147,0,0,1,.319.024,2.379,2.379,0,0,1,.319.07v.564a1.152,1.152,0,0,0-.3-.121,1.252,1.252,0,0,0-.311-.04.688.688,0,0,0-.135.013.445.445,0,0,0-.112.037.206.206,0,0,0-.076.062.144.144,0,0,0-.028.087.16.16,0,0,0,.042.111.361.361,0,0,0,.109.08,1.072,1.072,0,0,0,.149.06l.163.054a2.117,2.117,0,0,1,.263.111.842.842,0,0,1,.2.141.553.553,0,0,1,.129.189.673.673,0,0,1,.045.259.675.675,0,0,1-.091.359.73.73,0,0,1-.243.243,1.1,1.1,0,0,1-.349.136,1.934,1.934,0,0,1-.41.043A2.114,2.114,0,0,1-12.4-2.483ZM-7.52-4.889l-.09.416h-.427l-.127.573h.478l-.1.416h-.46l-.18.8h-.462l.169-.8h-.529l-.171.8h-.462l.164-.8h-.43l.085-.416h.434l.122-.573h-.467l.079-.416h.474l.171-.822h.474l-.171.822h.529l.176-.822h.469l-.171.822Zm-.984.416H-9.04l-.127.573h.534Zm3.817.238a2.938,2.938,0,0,1-.1.789,1.692,1.692,0,0,1-.283.588,1.25,1.25,0,0,1-.454.368,1.39,1.39,0,0,1-.607.128,1.726,1.726,0,0,1-.7-.129v-.6a1.121,1.121,0,0,0,.628.171.723.723,0,0,0,.589-.256A1.144,1.144,0,0,0-5.4-3.919l-.014,0a.75.75,0,0,1-.668.326.916.916,0,0,1-.375-.076.9.9,0,0,1-.3-.211.966.966,0,0,1-.2-.322,1.158,1.158,0,0,1-.07-.411,1.277,1.277,0,0,1,.085-.476,1.089,1.089,0,0,1,.239-.37A1.055,1.055,0,0,1-6.325-5.7a1.292,1.292,0,0,1,.476-.084,1.089,1.089,0,0,1,.485.105,1.019,1.019,0,0,1,.366.3,1.418,1.418,0,0,1,.231.487A2.469,2.469,0,0,1-4.687-4.236Zm-.737-.388a.858.858,0,0,0-.032-.239.629.629,0,0,0-.09-.193.438.438,0,0,0-.141-.128.362.362,0,0,0-.182-.047.371.371,0,0,0-.174.042.425.425,0,0,0-.137.114.542.542,0,0,0-.09.174.72.72,0,0,0-.032.219.75.75,0,0,0,.032.23.491.491,0,0,0,.091.17.383.383,0,0,0,.142.105.463.463,0,0,0,.185.036.4.4,0,0,0,.176-.038.423.423,0,0,0,.135-.1.465.465,0,0,0,.088-.152A.562.562,0,0,0-5.424-4.624ZM-3.97-2.529v-.635a1.282,1.282,0,0,0,.776.243.7.7,0,0,0,.435-.12A.4.4,0,0,0-2.6-3.376.381.381,0,0,0-2.8-3.718a1,1,0,0,0-.53-.12h-.307V-4.4h.284q.647,0,.647-.43,0-.4-.5-.4a1.132,1.132,0,0,0-.647.215v-.6a1.786,1.786,0,0,1,.813-.176,1.227,1.227,0,0,1,.791.229.728.728,0,0,1,.283.594.772.772,0,0,1-.658.813v.012a.9.9,0,0,1,.554.255.72.72,0,0,1,.2.519.889.889,0,0,1-.34.735,1.468,1.468,0,0,1-.938.27A1.812,1.812,0,0,1-3.97-2.529Zm4.886-3.2v2.088h.4V-3.1h-.4v.679H.251V-3.1H-1.193V-3.67q.192-.215.4-.47t.4-.525q.192-.27.357-.544a5.453,5.453,0,0,0,.281-.523ZM-.539-3.644h.79V-4.8q-.081.15-.176.3t-.2.3q-.1.149-.21.289T-.539-3.644ZM4.2-5.312q-.222.4-.4.75t-.31.691a6.513,6.513,0,0,0-.229.693,6.693,6.693,0,0,0-.155.759H2.349a6.237,6.237,0,0,1,.171-.744,6.975,6.975,0,0,1,.246-.694q.14-.336.31-.655t.359-.624H1.9v-.6H4.2Z" transform="translate(23.943 31.088)"/></g></g><path class="f" d="M0,32.541S35.3,82.892,65.822,72.459s35.441-26.169,55.957,0,62.76,3.037,62.76,3.037V2.82L4.932,0Z" transform="translate(437.731 -69.993) rotate(47)"/><path class="g" d="M0,21.946S23.8,55.9,44.389,48.866s23.9-17.648,37.737,0,42.325,2.048,42.325,2.048V1.9L3.326,0Z" transform="translate(465.479 -30.232) rotate(47)"/><path class="b" d="M6220,158.7s11.8-.884,27.532,11.9,52.806-14.262,97.213,11.376,50.694,17.474,50.694,17.474H6220V158.7Z" transform="translate(-6220.146 -100.72)"/><path class="h" d="M6220,146.69s12.292,29.568,42.708,29.568c20.774,0,43.31-4.827,43.31-4.827s14.975-3.082,28.3,4.827c42.047,24.95,51.8,20.959,51.8,20.959H6220V146.69Z" transform="translate(-6220.616 -96.076)"/><path class="g" d="M6227.464,151.444S6223.342,163.3,6240,163.3s19.575-9.243,42.6,4.048,28.359,11.165,28.359,11.165H6220V157.9l10.576-4.525Z" transform="translate(-6230.229 -79.377)"/><g transform="translate(47.782 32)"><g transform="translate(4 1)"><path class="b" d="M1.679-11.679v-3.279a6.3,6.3,0,0,0,1.936,1.122,6.225,6.225,0,0,0,2.111.374,4.681,4.681,0,0,0,1.091-.113,2.556,2.556,0,0,0,.779-.312,1.363,1.363,0,0,0,.466-.471,1.176,1.176,0,0,0,.154-.589,1.274,1.274,0,0,0-.246-.768,2.646,2.646,0,0,0-.671-.625,7.012,7.012,0,0,0-1.009-.553q-.584-.266-1.26-.543A6.432,6.432,0,0,1,2.462-19.19a3.825,3.825,0,0,1-.845-2.5,3.982,3.982,0,0,1,.461-1.972,3.916,3.916,0,0,1,1.255-1.358A5.628,5.628,0,0,1,5.172-25.8a9.45,9.45,0,0,1,2.213-.251,13.311,13.311,0,0,1,2.034.138,8,8,0,0,1,1.634.425v3.063a4.942,4.942,0,0,0-.8-.451,6.372,6.372,0,0,0-.9-.323,6.838,6.838,0,0,0-.917-.19,6.49,6.49,0,0,0-.866-.061,4.515,4.515,0,0,0-1.025.108,2.628,2.628,0,0,0-.779.3,1.5,1.5,0,0,0-.492.466,1.1,1.1,0,0,0-.174.61,1.164,1.164,0,0,0,.195.661,2.233,2.233,0,0,0,.553.553,5.871,5.871,0,0,0,.871.512q.512.251,1.158.517a12.9,12.9,0,0,1,1.583.784,5.628,5.628,0,0,1,1.2.937,3.652,3.652,0,0,1,.768,1.194,4.218,4.218,0,0,1,.266,1.562,4.185,4.185,0,0,1-.466,2.065,3.785,3.785,0,0,1-1.265,1.352,5.487,5.487,0,0,1-1.86.743,10.747,10.747,0,0,1-2.239.225,12.448,12.448,0,0,1-2.3-.2A6.944,6.944,0,0,1,1.679-11.679Zm23.241.564H21.693v-5.963q0-2.305-1.68-2.305a1.72,1.72,0,0,0-1.393.645,2.49,2.49,0,0,0-.533,1.639v5.984H14.849V-26.648h3.238v6.6h.041a3.679,3.679,0,0,1,3.227-1.814q3.566,0,3.566,4.3Zm12.34,0H34.2v-1.506h-.041a3.419,3.419,0,0,1-3.125,1.762,3.269,3.269,0,0,1-2.4-.866,3.1,3.1,0,0,1-.876-2.31q0-3.053,3.617-3.525l2.848-.379q0-1.721-1.865-1.721a6.365,6.365,0,0,0-3.566,1.117v-2.438a8.022,8.022,0,0,1,1.849-.615,9.722,9.722,0,0,1,2.136-.266q4.488,0,4.488,4.477Zm-3.043-4.262v-.707l-1.906.246q-1.578.2-1.578,1.424a1.177,1.177,0,0,0,.384.907,1.476,1.476,0,0,0,1.04.353,1.917,1.917,0,0,0,1.486-.63A2.276,2.276,0,0,0,34.217-15.378ZM50.84-11.116H47.612v-1.6h-.051a3.661,3.661,0,0,1-3.207,1.854q-3.647,0-3.647-4.416v-6.332h3.227v6.045q0,2.223,1.762,2.223a1.743,1.743,0,0,0,1.393-.61,2.458,2.458,0,0,0,.523-1.655v-6H50.84Zm13.908,0H61.52v-5.83q0-2.438-1.742-2.438a1.728,1.728,0,0,0-1.383.645,2.459,2.459,0,0,0-.543,1.639v5.984H54.614V-21.608h3.238v1.66h.041a3.71,3.71,0,0,1,3.371-1.916q3.484,0,3.484,4.324Z" transform="translate(-1.617 26.648)"/><path class="i" d="M1.306-9.084v-2.55a4.9,4.9,0,0,0,1.506.873,4.841,4.841,0,0,0,1.642.291,3.64,3.64,0,0,0,.849-.088,1.988,1.988,0,0,0,.606-.243,1.06,1.06,0,0,0,.363-.367.915.915,0,0,0,.12-.458.991.991,0,0,0-.191-.6,2.058,2.058,0,0,0-.522-.486,5.454,5.454,0,0,0-.785-.43q-.454-.207-.98-.422a5,5,0,0,1-2-1.363,2.975,2.975,0,0,1-.657-1.944A3.1,3.1,0,0,1,1.616-18.4a3.046,3.046,0,0,1,.976-1.056,4.377,4.377,0,0,1,1.43-.61,7.35,7.35,0,0,1,1.721-.2,10.353,10.353,0,0,1,1.582.108,6.221,6.221,0,0,1,1.271.331v2.383a3.844,3.844,0,0,0-.626-.351,4.957,4.957,0,0,0-.7-.251,5.319,5.319,0,0,0-.713-.147,5.048,5.048,0,0,0-.673-.048,3.512,3.512,0,0,0-.8.084,2.044,2.044,0,0,0-.606.235,1.17,1.17,0,0,0-.383.363.859.859,0,0,0-.135.474.906.906,0,0,0,.151.514,1.737,1.737,0,0,0,.43.43,4.567,4.567,0,0,0,.677.4q.4.2.9.4a10.034,10.034,0,0,1,1.231.61A4.377,4.377,0,0,1,8.294-14a2.841,2.841,0,0,1,.6.928A3.28,3.28,0,0,1,9.1-11.857a3.255,3.255,0,0,1-.363,1.606A2.944,2.944,0,0,1,7.752-9.2a4.268,4.268,0,0,1-1.446.578,8.359,8.359,0,0,1-1.741.175,9.682,9.682,0,0,1-1.789-.159A5.4,5.4,0,0,1,1.306-9.084Zm18.077.438h-2.51v-4.638q0-1.793-1.307-1.793a1.338,1.338,0,0,0-1.084.5,1.936,1.936,0,0,0-.414,1.275v4.654H11.549V-20.727h2.518v5.132H14.1a2.861,2.861,0,0,1,2.51-1.411q2.773,0,2.773,3.347Zm9.6,0H26.6V-9.817h-.032a2.659,2.659,0,0,1-2.431,1.371,2.542,2.542,0,0,1-1.869-.673,2.413,2.413,0,0,1-.681-1.8q0-2.375,2.813-2.741l2.215-.295q0-1.339-1.45-1.339a4.95,4.95,0,0,0-2.773.869v-1.9a6.239,6.239,0,0,1,1.438-.478,7.561,7.561,0,0,1,1.662-.207q3.49,0,3.49,3.482Zm-2.367-3.315v-.55l-1.482.191Q23.9-12.16,23.9-11.212a.915.915,0,0,0,.3.705,1.148,1.148,0,0,0,.809.275,1.491,1.491,0,0,0,1.155-.49A1.77,1.77,0,0,0,26.613-11.961ZM39.542-8.646h-2.51V-9.889h-.04A2.848,2.848,0,0,1,34.5-8.446q-2.837,0-2.837-3.435v-4.925h2.51v4.7q0,1.729,1.371,1.729a1.356,1.356,0,0,0,1.084-.474,1.912,1.912,0,0,0,.406-1.287v-4.67h2.51Zm10.817,0h-2.51V-13.18q0-1.9-1.355-1.9a1.344,1.344,0,0,0-1.076.5A1.913,1.913,0,0,0,45-13.3v4.654H42.478v-8.16H45v1.291h.032a2.886,2.886,0,0,1,2.622-1.49q2.709,0,2.709,3.363Z" transform="translate(6.554 23.415)"/></g><path class="j" d="M1.5-2.9v1.473H.542V-5.7H2.05q1.616,0,1.616,1.363A1.307,1.307,0,0,1,3.2-3.295a1.837,1.837,0,0,1-1.239.4Zm0-2.063v1.333h.379q.769,0,.769-.674T1.883-4.96ZM6.253-3.627a.817.817,0,0,0-.4-.092.571.571,0,0,0-.48.225.982.982,0,0,0-.173.613v1.458H4.261V-4.477H5.2v.567h.012a.815.815,0,0,1,.805-.62.607.607,0,0,1,.233.036ZM8.184-1.349a1.641,1.641,0,0,1-1.2-.428,1.551,1.551,0,0,1-.437-1.161A1.551,1.551,0,0,1,7-4.124a1.713,1.713,0,0,1,1.226-.428,1.622,1.622,0,0,1,1.193.428,1.521,1.521,0,0,1,.432,1.132A1.614,1.614,0,0,1,9.4-1.79,1.66,1.66,0,0,1,8.184-1.349ZM8.208-3.83a.628.628,0,0,0-.519.23,1.012,1.012,0,0,0-.185.65q0,.88.71.88.677,0,.677-.9Q8.891-3.83,8.208-3.83Zm4.215-1.392a.952.952,0,0,0-.349-.072q-.453,0-.453.492v.325h.7v.695h-.7v2.359h-.939V-3.782h-.513v-.695h.513v-.379a1.1,1.1,0,0,1,.34-.841,1.3,1.3,0,0,1,.924-.319,1.623,1.623,0,0,1,.477.06Zm3.153,2.54H13.584q.048.665.838.665a1.636,1.636,0,0,0,.886-.239v.68a2.326,2.326,0,0,1-1.1.227,1.549,1.549,0,0,1-1.148-.41A1.549,1.549,0,0,1,12.65-2.9a1.634,1.634,0,0,1,.441-1.2,1.47,1.47,0,0,1,1.085-.444,1.334,1.334,0,0,1,1.033.4,1.527,1.527,0,0,1,.365,1.076ZM14.7-3.26q0-.656-.531-.656a.507.507,0,0,0-.392.188.853.853,0,0,0-.2.468ZM16-1.5v-.763a2.006,2.006,0,0,0,.464.209,1.537,1.537,0,0,0,.437.069.937.937,0,0,0,.4-.069.222.222,0,0,0,.145-.209.193.193,0,0,0-.066-.149.61.61,0,0,0-.168-.1,1.912,1.912,0,0,0-.225-.081q-.122-.036-.236-.081a2.257,2.257,0,0,1-.321-.148.926.926,0,0,1-.233-.183.721.721,0,0,1-.143-.242A.964.964,0,0,1,16-3.58a.837.837,0,0,1,.112-.441.913.913,0,0,1,.3-.3,1.362,1.362,0,0,1,.426-.173,2.223,2.223,0,0,1,.5-.055,2.771,2.771,0,0,1,.411.031,3.071,3.071,0,0,1,.411.091V-3.7a1.487,1.487,0,0,0-.383-.157,1.616,1.616,0,0,0-.4-.052.889.889,0,0,0-.174.016.574.574,0,0,0-.145.048.266.266,0,0,0-.1.081.185.185,0,0,0-.036.112.207.207,0,0,0,.054.143.466.466,0,0,0,.14.1,1.383,1.383,0,0,0,.192.078l.21.07a2.733,2.733,0,0,1,.34.143,1.087,1.087,0,0,1,.261.182.714.714,0,0,1,.167.245.869.869,0,0,1,.058.334.871.871,0,0,1-.118.464.943.943,0,0,1-.313.313,1.42,1.42,0,0,1-.45.176,2.5,2.5,0,0,1-.529.055A2.728,2.728,0,0,1,16-1.5Zm2.748,0v-.763a2.006,2.006,0,0,0,.464.209,1.537,1.537,0,0,0,.437.069.937.937,0,0,0,.4-.069.222.222,0,0,0,.145-.209.193.193,0,0,0-.066-.149.61.61,0,0,0-.168-.1,1.912,1.912,0,0,0-.225-.081q-.122-.036-.236-.081a2.257,2.257,0,0,1-.321-.148.926.926,0,0,1-.233-.183.721.721,0,0,1-.143-.242.964.964,0,0,1-.049-.325.837.837,0,0,1,.112-.441.913.913,0,0,1,.3-.3,1.362,1.362,0,0,1,.426-.173,2.223,2.223,0,0,1,.5-.055,2.771,2.771,0,0,1,.411.031,3.071,3.071,0,0,1,.411.091V-3.7a1.487,1.487,0,0,0-.383-.157,1.616,1.616,0,0,0-.4-.052.889.889,0,0,0-.174.016.574.574,0,0,0-.145.048.266.266,0,0,0-.1.081.185.185,0,0,0-.036.112.207.207,0,0,0,.054.143.466.466,0,0,0,.14.1,1.384,1.384,0,0,0,.192.078l.21.07a2.733,2.733,0,0,1,.34.143,1.087,1.087,0,0,1,.261.182.714.714,0,0,1,.167.245.869.869,0,0,1,.058.334.871.871,0,0,1-.118.464.943.943,0,0,1-.313.313,1.42,1.42,0,0,1-.45.176,2.5,2.5,0,0,1-.529.055A2.728,2.728,0,0,1,18.745-1.5ZM22.169-4.96a.55.55,0,0,1-.391-.142.456.456,0,0,1-.152-.347.44.44,0,0,1,.152-.346.569.569,0,0,1,.391-.134.567.567,0,0,1,.392.134.442.442,0,0,1,.151.346.455.455,0,0,1-.151.352A.56.56,0,0,1,22.169-4.96Zm.465,3.536h-.942V-4.477h.942Zm2.309.075a1.641,1.641,0,0,1-1.2-.428,1.551,1.551,0,0,1-.437-1.161,1.551,1.551,0,0,1,.453-1.185,1.713,1.713,0,0,1,1.226-.428,1.622,1.622,0,0,1,1.193.428,1.521,1.521,0,0,1,.432,1.132,1.614,1.614,0,0,1-.446,1.2A1.66,1.66,0,0,1,24.944-1.349Zm.024-2.481a.628.628,0,0,0-.519.23,1.012,1.012,0,0,0-.185.65q0,.88.71.88.677,0,.677-.9Q25.651-3.83,24.968-3.83Zm5.264,2.406h-.939v-1.7q0-.71-.507-.71a.5.5,0,0,0-.4.188.716.716,0,0,0-.158.477v1.741h-.942V-4.477h.942v.483h.012a1.08,1.08,0,0,1,.981-.558q1.014,0,1.014,1.258Zm3.347,0h-.892v-.438h-.012a1,1,0,0,1-.909.513.951.951,0,0,1-.7-.252.9.9,0,0,1-.255-.672q0-.889,1.053-1.026l.829-.11q0-.5-.543-.5a1.852,1.852,0,0,0-1.038.325V-4.3a2.334,2.334,0,0,1,.538-.179,2.829,2.829,0,0,1,.622-.078,1.153,1.153,0,0,1,1.306,1.3Zm-.886-1.24V-2.87l-.555.072q-.459.06-.459.414a.342.342,0,0,0,.112.264.43.43,0,0,0,.3.1.558.558,0,0,0,.432-.183A.662.662,0,0,0,32.693-2.664Zm2.634,1.24h-.942v-4.52h.942Zm4.592-3.8a.952.952,0,0,0-.349-.072q-.453,0-.453.492v.325h.7v.695h-.7v2.359h-.939V-3.782h-.513v-.695h.513v-.379a1.1,1.1,0,0,1,.34-.841,1.3,1.3,0,0,1,.924-.319,1.623,1.623,0,0,1,.477.06Zm2.4,1.6a.817.817,0,0,0-.4-.092.571.571,0,0,0-.48.225.982.982,0,0,0-.173.613v1.458h-.942V-4.477h.942v.567h.012a.815.815,0,0,1,.805-.62.607.607,0,0,1,.233.036Zm1.931,2.278a1.641,1.641,0,0,1-1.2-.428,1.551,1.551,0,0,1-.437-1.161,1.551,1.551,0,0,1,.453-1.185,1.713,1.713,0,0,1,1.226-.428,1.622,1.622,0,0,1,1.193.428,1.521,1.521,0,0,1,.432,1.132,1.614,1.614,0,0,1-.446,1.2A1.66,1.66,0,0,1,44.252-1.349Zm.024-2.481a.628.628,0,0,0-.519.23,1.012,1.012,0,0,0-.185.65q0,.88.71.88.677,0,.677-.9Q44.959-3.83,44.276-3.83ZM49.54-1.424H48.6v-1.7q0-.71-.507-.71a.5.5,0,0,0-.4.188.716.716,0,0,0-.158.477v1.741h-.942V-4.477h.942v.483h.012a1.08,1.08,0,0,1,.981-.558q1.014,0,1.014,1.258Zm2.652-.036a1.393,1.393,0,0,1-.629.11q-1,0-1-1.035v-1.4h-.495v-.695h.495v-.659l.939-.268v.927h.686v.695h-.686v1.234q0,.477.379.477a.638.638,0,0,0,.307-.086Zm1.978-1.264H52.54v-.659h1.631Zm3.612.042H55.791q.048.665.838.665a1.636,1.636,0,0,0,.886-.239v.68a2.326,2.326,0,0,1-1.1.227,1.549,1.549,0,0,1-1.148-.41A1.549,1.549,0,0,1,54.858-2.9a1.634,1.634,0,0,1,.441-1.2,1.47,1.47,0,0,1,1.085-.444,1.334,1.334,0,0,1,1.033.4,1.527,1.527,0,0,1,.365,1.076Zm-.874-.578q0-.656-.531-.656a.507.507,0,0,0-.392.188.853.853,0,0,0-.2.468Zm4.444,1.837h-.939v-1.7q0-.71-.507-.71a.5.5,0,0,0-.4.188.716.716,0,0,0-.158.477v1.741H58.4V-4.477h.942v.483h.012a1.08,1.08,0,0,1,.981-.558q1.014,0,1.014,1.258Zm3.794,0h-.942v-.42h-.012a1.056,1.056,0,0,1-.945.495,1.158,1.158,0,0,1-.921-.4,1.673,1.673,0,0,1-.349-1.129A1.82,1.82,0,0,1,62.363-4.1a1.255,1.255,0,0,1,1.008-.456.857.857,0,0,1,.823.423h.012V-5.944h.942Zm-.924-1.485v-.23a.722.722,0,0,0-.173-.495.571.571,0,0,0-.45-.2.568.568,0,0,0-.489.246,1.142,1.142,0,0,0-.176.675.989.989,0,0,0,.17.62.564.564,0,0,0,.471.218.567.567,0,0,0,.467-.23A.957.957,0,0,0,64.223-2.909ZM72.17-4.477l-.88,3.053H70.3l-.45-1.789A1.822,1.822,0,0,1,69.8-3.6h-.018a2.337,2.337,0,0,1-.06.379l-.483,1.8h-.978L67.4-4.477h.96l.42,1.992a2.591,2.591,0,0,1,.045.34h.018A1.883,1.883,0,0,1,68.9-2.5l.525-1.98h.9l.471,1.992a3.166,3.166,0,0,1,.042.346h.021a3.442,3.442,0,0,1,.048-.346l.4-1.992Zm3.222,1.8H73.4q.048.665.838.665a1.636,1.636,0,0,0,.886-.239v.68a2.326,2.326,0,0,1-1.1.227,1.549,1.549,0,0,1-1.148-.41A1.549,1.549,0,0,1,72.466-2.9a1.634,1.634,0,0,1,.441-1.2,1.47,1.47,0,0,1,1.085-.444,1.334,1.334,0,0,1,1.033.4,1.527,1.527,0,0,1,.365,1.076Zm-.874-.578q0-.656-.531-.656a.507.507,0,0,0-.392.188.853.853,0,0,0-.2.468Zm2.449,1.482h-.012v.355h-.942v-4.52h.942v1.926h.012a1.118,1.118,0,0,1,.993-.534,1.089,1.089,0,0,1,.909.406,1.749,1.749,0,0,1,.319,1.109,1.894,1.894,0,0,1-.373,1.226,1.214,1.214,0,0,1-1,.462A.962.962,0,0,1,76.967-1.779ZM76.94-3.067v.313a.715.715,0,0,0,.17.489.553.553,0,0,0,.435.194.578.578,0,0,0,.5-.249,1.2,1.2,0,0,0,.177-.705.956.956,0,0,0-.163-.592A.548.548,0,0,0,77.6-3.83a.6.6,0,0,0-.47.212A.8.8,0,0,0,76.94-3.067Zm7.654,1.643h-.942v-.42H83.64a1.056,1.056,0,0,1-.945.495,1.158,1.158,0,0,1-.921-.4,1.673,1.673,0,0,1-.349-1.129A1.82,1.82,0,0,1,81.809-4.1a1.255,1.255,0,0,1,1.008-.456.857.857,0,0,1,.823.423h.012V-5.944h.942ZM83.67-2.909v-.23a.722.722,0,0,0-.173-.495.571.571,0,0,0-.45-.2.568.568,0,0,0-.489.246,1.142,1.142,0,0,0-.176.675.988.988,0,0,0,.17.62.564.564,0,0,0,.471.218.567.567,0,0,0,.467-.23A.957.957,0,0,0,83.67-2.909Zm4.522.227H86.2q.048.665.838.665a1.636,1.636,0,0,0,.886-.239v.68a2.326,2.326,0,0,1-1.1.227,1.549,1.549,0,0,1-1.148-.41A1.549,1.549,0,0,1,85.267-2.9a1.634,1.634,0,0,1,.441-1.2,1.47,1.47,0,0,1,1.085-.444,1.334,1.334,0,0,1,1.033.4,1.527,1.527,0,0,1,.365,1.076Zm-.874-.578q0-.656-.531-.656a.507.507,0,0,0-.392.188.853.853,0,0,0-.2.468Zm4.4-1.217L90.585-1.424H89.511L88.429-4.477h1.008L89.967-2.6a2.748,2.748,0,0,1,.1.543h.012a3.08,3.08,0,0,1,.11-.525l.543-1.9Zm3.147,1.8H92.876q.048.665.838.665a1.636,1.636,0,0,0,.886-.239v.68a2.326,2.326,0,0,1-1.1.227,1.549,1.549,0,0,1-1.148-.41A1.549,1.549,0,0,1,91.943-2.9a1.634,1.634,0,0,1,.441-1.2,1.47,1.47,0,0,1,1.085-.444,1.334,1.334,0,0,1,1.033.4,1.527,1.527,0,0,1,.365,1.076Zm-.874-.578q0-.656-.531-.656a.507.507,0,0,0-.392.188.853.853,0,0,0-.2.468Zm2.438,1.837H95.49v-4.52h.942Zm2.309.075a1.641,1.641,0,0,1-1.2-.428A1.551,1.551,0,0,1,97.1-2.938a1.551,1.551,0,0,1,.453-1.185,1.712,1.712,0,0,1,1.226-.428,1.622,1.622,0,0,1,1.193.428,1.521,1.521,0,0,1,.432,1.132,1.615,1.615,0,0,1-.446,1.2A1.66,1.66,0,0,1,98.741-1.349Zm.024-2.481a.628.628,0,0,0-.519.23,1.012,1.012,0,0,0-.185.65q0,.88.71.88.677,0,.677-.9Q99.448-3.83,98.765-3.83Zm3.269,2.051h-.012V-.019h-.942V-4.477h.942v.459h.012a1.108,1.108,0,0,1,.981-.534,1.1,1.1,0,0,1,.917.407,1.733,1.733,0,0,1,.324,1.108,1.878,1.878,0,0,1-.377,1.226,1.23,1.23,0,0,1-1,.462A.951.951,0,0,1,102.034-1.779Zm-.027-1.252v.245a.777.777,0,0,0,.167.516.544.544,0,0,0,.438.2.578.578,0,0,0,.5-.249,1.2,1.2,0,0,0,.177-.705q0-.805-.626-.805a.588.588,0,0,0-.473.219A.874.874,0,0,0,102.008-3.031Zm5.664.349H105.68q.048.665.838.665a1.636,1.636,0,0,0,.886-.239v.68a2.327,2.327,0,0,1-1.1.227,1.549,1.549,0,0,1-1.148-.41,1.549,1.549,0,0,1-.409-1.144,1.634,1.634,0,0,1,.441-1.2,1.47,1.47,0,0,1,1.085-.444,1.334,1.334,0,0,1,1.033.4,1.527,1.527,0,0,1,.365,1.076ZM106.8-3.26q0-.656-.531-.656a.507.507,0,0,0-.392.188.853.853,0,0,0-.2.468Zm3.487-.367a.817.817,0,0,0-.4-.092.571.571,0,0,0-.48.225.982.982,0,0,0-.173.613v1.458h-.942V-4.477h.942v.567h.012a.815.815,0,0,1,.805-.62.607.607,0,0,1,.233.036Zm.9,1.452-.438,1.509h-.734l.3-1.509Zm7.419.751h-.939V-3.165q0-.665-.489-.665a.449.449,0,0,0-.379.2.821.821,0,0,0-.146.5v1.709h-.942V-3.183q0-.647-.48-.647a.46.46,0,0,0-.386.191.84.84,0,0,0-.145.519v1.7h-.942V-4.477h.942V-4h.012a1.127,1.127,0,0,1,.41-.4,1.127,1.127,0,0,1,.577-.154.879.879,0,0,1,.886.57,1.129,1.129,0,0,1,1.026-.57q1,0,1,1.228Zm3.55-1.258h-1.992q.048.665.838.665a1.636,1.636,0,0,0,.886-.239v.68a2.327,2.327,0,0,1-1.1.227,1.549,1.549,0,0,1-1.148-.41A1.549,1.549,0,0,1,119.23-2.9a1.634,1.634,0,0,1,.441-1.2,1.47,1.47,0,0,1,1.085-.444,1.334,1.334,0,0,1,1.033.4,1.527,1.527,0,0,1,.365,1.076Zm-.874-.578q0-.656-.531-.656a.507.507,0,0,0-.392.188.853.853,0,0,0-.2.468Zm4.444,1.837h-.939v-1.7q0-.71-.507-.71a.5.5,0,0,0-.4.188.716.716,0,0,0-.158.477v1.741h-.942V-4.477h.942v.483h.012a1.08,1.08,0,0,1,.981-.558q1.014,0,1.014,1.258Zm2.652-.036a1.393,1.393,0,0,1-.629.11q-1,0-1-1.035v-1.4h-.495v-.695h.495v-.659l.939-.268v.927h.686v.695h-.686v1.234q0,.477.379.477a.638.638,0,0,0,.307-.086Zm2.023.11a1.641,1.641,0,0,1-1.2-.428,1.551,1.551,0,0,1-.437-1.161,1.551,1.551,0,0,1,.453-1.185,1.712,1.712,0,0,1,1.226-.428,1.622,1.622,0,0,1,1.193.428,1.521,1.521,0,0,1,.432,1.132,1.614,1.614,0,0,1-.446,1.2A1.66,1.66,0,0,1,130.4-1.349Zm.024-2.481a.628.628,0,0,0-.519.23,1.012,1.012,0,0,0-.185.65q0,.88.71.88.677,0,.677-.9Q131.108-3.83,130.425-3.83Zm4.307.2a.817.817,0,0,0-.4-.092.571.571,0,0,0-.48.225.982.982,0,0,0-.173.613v1.458h-.942V-4.477h.942v.567h.012a.815.815,0,0,1,.805-.62.607.607,0,0,1,.233.036Zm.9,1.452L135.2-.666h-.734l.3-1.509ZM2.99,6.973H2.1V6.535H2.086a1,1,0,0,1-.909.513.951.951,0,0,1-.7-.252.9.9,0,0,1-.255-.672q0-.889,1.053-1.026l.829-.11q0-.5-.543-.5a1.852,1.852,0,0,0-1.038.325V4.1a2.334,2.334,0,0,1,.538-.179,2.829,2.829,0,0,1,.622-.078,1.153,1.153,0,0,1,1.306,1.3ZM2.1,5.733V5.527L1.55,5.6q-.459.06-.459.414a.342.342,0,0,0,.112.264.43.43,0,0,0,.3.1A.558.558,0,0,0,1.937,6.2.662.662,0,0,0,2.1,5.733Zm4.641,1.24H5.806v-1.7q0-.71-.507-.71a.5.5,0,0,0-.4.188.716.716,0,0,0-.158.477V6.973H3.8V3.92h.942V4.4H4.75a1.08,1.08,0,0,1,.981-.558q1.014,0,1.014,1.258Zm3.794,0H9.6v-.42H9.585a1.056,1.056,0,0,1-.945.495,1.158,1.158,0,0,1-.921-.4A1.673,1.673,0,0,1,7.37,5.515,1.82,1.82,0,0,1,7.754,4.3a1.255,1.255,0,0,1,1.008-.456.857.857,0,0,1,.823.423H9.6V2.453h.942ZM9.615,5.488v-.23a.722.722,0,0,0-.173-.495.611.611,0,0,0-.939.049,1.142,1.142,0,0,0-.176.675.988.988,0,0,0,.17.62A.6.6,0,0,0,9.435,6.1.957.957,0,0,0,9.615,5.488Zm4.979,1.559a1.641,1.641,0,0,1-1.2-.428,1.551,1.551,0,0,1-.437-1.161,1.551,1.551,0,0,1,.453-1.185,1.713,1.713,0,0,1,1.226-.428,1.622,1.622,0,0,1,1.193.428A1.521,1.521,0,0,1,16.261,5.4a1.615,1.615,0,0,1-.446,1.2A1.66,1.66,0,0,1,14.595,7.047Zm.024-2.481a.628.628,0,0,0-.519.23,1.012,1.012,0,0,0-.185.65q0,.88.71.88.677,0,.677-.9Q15.3,4.567,14.618,4.567Zm6.737-.647-.88,3.053h-.99l-.45-1.789a1.822,1.822,0,0,1-.051-.391h-.018a2.337,2.337,0,0,1-.06.379l-.483,1.8h-.978L16.585,3.92h.96l.42,1.992a2.59,2.59,0,0,1,.045.34h.018a1.882,1.882,0,0,1,.054-.352l.525-1.98h.9l.471,1.992a3.167,3.167,0,0,1,.042.346h.021a3.442,3.442,0,0,1,.048-.346l.4-1.992Zm3.457,3.053h-.939v-1.7q0-.71-.507-.71a.5.5,0,0,0-.4.188.716.716,0,0,0-.158.477V6.973h-.942V3.92h.942V4.4h.012a1.08,1.08,0,0,1,.981-.558q1.014,0,1.014,1.258Zm3.55-1.258H26.371q.048.665.838.665a1.636,1.636,0,0,0,.886-.239v.68a2.326,2.326,0,0,1-1.1.227,1.549,1.549,0,0,1-1.148-.41,1.549,1.549,0,0,1-.409-1.144,1.634,1.634,0,0,1,.441-1.2,1.47,1.47,0,0,1,1.085-.444,1.334,1.334,0,0,1,1.033.4,1.527,1.527,0,0,1,.365,1.076Zm-.874-.578q0-.656-.531-.656a.507.507,0,0,0-.392.188.853.853,0,0,0-.2.468Zm3.487-.367a.817.817,0,0,0-.4-.092.571.571,0,0,0-.48.225.982.982,0,0,0-.173.613V6.973h-.942V3.92h.942v.567h.012a.815.815,0,0,1,.805-.62.607.607,0,0,1,.233.036Zm3.7,2.278a1.641,1.641,0,0,1-1.2-.428,1.551,1.551,0,0,1-.437-1.161,1.551,1.551,0,0,1,.453-1.185,1.713,1.713,0,0,1,1.226-.428,1.622,1.622,0,0,1,1.193.428A1.521,1.521,0,0,1,36.343,5.4a1.614,1.614,0,0,1-.446,1.2A1.66,1.66,0,0,1,34.676,7.047ZM34.7,4.567a.628.628,0,0,0-.519.23,1.012,1.012,0,0,0-.185.65q0,.88.71.88.677,0,.677-.9Q35.383,4.567,34.7,4.567Zm4.215-1.392a.952.952,0,0,0-.349-.072q-.453,0-.453.492V3.92h.7v.695h-.7V6.973h-.939V4.614h-.513V3.92h.513V3.541a1.1,1.1,0,0,1,.34-.841,1.3,1.3,0,0,1,.924-.319,1.623,1.623,0,0,1,.477.06Zm2.051,3.635V5.855a1.833,1.833,0,0,0,.564.327,1.811,1.811,0,0,0,.614.109,1.362,1.362,0,0,0,.318-.033.744.744,0,0,0,.227-.091.4.4,0,0,0,.136-.137.342.342,0,0,0,.045-.171.371.371,0,0,0-.072-.224.77.77,0,0,0-.2-.182,2.041,2.041,0,0,0-.294-.161q-.17-.078-.367-.158a1.872,1.872,0,0,1-.747-.51,1.113,1.113,0,0,1-.246-.728,1.159,1.159,0,0,1,.134-.574,1.14,1.14,0,0,1,.365-.4,1.638,1.638,0,0,1,.535-.228,2.75,2.75,0,0,1,.644-.073,3.874,3.874,0,0,1,.592.04,2.328,2.328,0,0,1,.476.124v.892a1.438,1.438,0,0,0-.234-.131,1.854,1.854,0,0,0-.261-.094,1.99,1.99,0,0,0-.267-.055,1.889,1.889,0,0,0-.252-.018,1.314,1.314,0,0,0-.3.031.765.765,0,0,0-.227.088.438.438,0,0,0-.143.136.322.322,0,0,0-.051.177.339.339,0,0,0,.057.192.65.65,0,0,0,.161.161,1.709,1.709,0,0,0,.253.149q.149.073.337.151a3.754,3.754,0,0,1,.461.228,1.638,1.638,0,0,1,.35.273,1.063,1.063,0,0,1,.224.347,1.228,1.228,0,0,1,.078.455,1.218,1.218,0,0,1-.136.6,1.1,1.1,0,0,1-.368.394,1.6,1.6,0,0,1-.541.216,3.128,3.128,0,0,1-.652.066,3.623,3.623,0,0,1-.669-.06A2.021,2.021,0,0,1,40.966,6.809ZM47.31,3.92l-1.24,3.3q-.447,1.19-1.348,1.19a1.727,1.727,0,0,1-.564-.078V7.578a.792.792,0,0,0,.409.11.51.51,0,0,0,.507-.343l.161-.379L43.994,3.92h1.044l.57,1.858a2.414,2.414,0,0,1,.083.409H45.7a2.848,2.848,0,0,1,.1-.4l.575-1.864ZM50.7,6.973h-.939v-1.7q0-.71-.507-.71a.5.5,0,0,0-.4.188.716.716,0,0,0-.158.477V6.973H47.75V3.92h.942V4.4H48.7a1.08,1.08,0,0,1,.981-.558Q50.7,3.845,50.7,5.1Zm3.12-.11a1.863,1.863,0,0,1-.921.185,1.558,1.558,0,0,1-1.139-.426,1.473,1.473,0,0,1-.435-1.1,1.622,1.622,0,0,1,.467-1.227,1.725,1.725,0,0,1,1.248-.449,1.6,1.6,0,0,1,.781.143v.8a1.074,1.074,0,0,0-.659-.221.868.868,0,0,0-.643.237.885.885,0,0,0-.237.654.87.87,0,0,0,.227.637.833.833,0,0,0,.623.231,1.244,1.244,0,0,0,.689-.221Zm2.133.185a1.641,1.641,0,0,1-1.2-.428,1.551,1.551,0,0,1-.437-1.161,1.551,1.551,0,0,1,.453-1.185,1.713,1.713,0,0,1,1.226-.428,1.622,1.622,0,0,1,1.193.428A1.521,1.521,0,0,1,57.619,5.4a1.615,1.615,0,0,1-.446,1.2A1.66,1.66,0,0,1,55.952,7.047Zm.024-2.481a.628.628,0,0,0-.519.23,1.012,1.012,0,0,0-.185.65q0,.88.71.88.677,0,.677-.9Q56.659,4.567,55.976,4.567Zm4.307.2a.817.817,0,0,0-.4-.092.571.571,0,0,0-.48.225.982.982,0,0,0-.173.613V6.973h-.942V3.92h.942v.567h.012a.815.815,0,0,1,.805-.62.607.607,0,0,1,.233.036Zm3.219.945H61.51q.048.665.838.665a1.636,1.636,0,0,0,.886-.239v.68a2.326,2.326,0,0,1-1.1.227,1.549,1.549,0,0,1-1.148-.41,1.549,1.549,0,0,1-.409-1.144,1.634,1.634,0,0,1,.441-1.2A1.47,1.47,0,0,1,62.1,3.845a1.334,1.334,0,0,1,1.033.4A1.527,1.527,0,0,1,63.5,5.318Zm-.874-.578q0-.656-.531-.656a.507.507,0,0,0-.392.188.853.853,0,0,0-.2.468Zm1.916,1.911a.55.55,0,0,1-.388-.143A.46.46,0,0,1,64,6.552a.443.443,0,0,1,.16-.352.589.589,0,0,1,.4-.137.567.567,0,0,1,.4.139.48.48,0,0,1,0,.707A.591.591,0,0,1,64.544,7.047Z" transform="translate(11.747 26.85)"/></g><g transform="translate(-2616 -1182.397)"><g transform="translate(2981.167 1255.73)"><path class="k" d="M14.113,12.667a4.3,4.3,0,0,0-1.657,8.271l.323-.52a3.693,3.693,0,1,1,1.335.254h-.018l3.143-5.1h-2.17l-.615.992h0l-.207.334-.019.03-.405.653h0l-.313.5-1.172-1.891h.7l.21.337h.758l-.622-.961H11.214l1.926,3.1h0l.367.592.368-.594h0l.352-.567h0l1.188-1.916h.7L13.2,20.887l.015.006-.151.244a4.3,4.3,0,1,0,1.047-8.47Z" transform="translate(0)"/></g><text class="l" transform="translate(3002 1274.397)"><tspan x="0" y="0">Syncore. All Rights Reserved 2018.</tspan></text></g></g></svg>