<svg xmlns="http://www.w3.org/2000/svg" xmlns:xlink="http://www.w3.org/1999/xlink" viewBox="0 0 500 125"><defs><style>.a{clip-path:url(#l);}.b{fill:#262626;}.c{fill:url(#c);}.d{fill:#1d976c;}.e{fill:url(#h);}.f{fill:url(#i);}.g{fill:#93f9b9;opacity:0.04;}.h{fill:#33c171;}.i{fill:url(#j);}.j{fill:#5c5c5c;}.k{fill:#3fa876;}.l{fill:#565656;font-size:5px;font-family:SegoeUI, Segoe UI;letter-spacing:0.01em;}.m{fill:#222;}.n{filter:url(#f);}.o{filter:url(#d);}.p{filter:url(#a);}</style><filter id="a" x="251.135" y="17" width="81.976" height="81.976" filterUnits="userSpaceOnUse"><feOffset dy="3" input="SourceAlpha"/><feGaussianBlur stdDeviation="3" result="b"/><feFlood flood-opacity="0.161"/><feComposite operator="in" in2="b"/><feComposite in="SourceGraphic"/></filter><linearGradient id="c" x1="1.336" y1="-0.191" x2="-0.454" y2="1.378" gradientUnits="objectBoundingBox"><stop offset="0" stop-color="#93f9b9"/><stop offset="1" stop-color="#1d976c"/></linearGradient><filter id="d" x="270.988" y="29.217" width="42.927" height="46.488" filterUnits="userSpaceOnUse"><feOffset dy="3" input="SourceAlpha"/><feGaussianBlur stdDeviation="3" result="e"/><feFlood flood-opacity="0.161"/><feComposite operator="in" in2="e"/><feComposite in="SourceGraphic"/></filter><filter id="f" x="338.184" y="17" width="81.976" height="81.976" filterUnits="userSpaceOnUse"><feOffset dy="3" input="SourceAlpha"/><feGaussianBlur stdDeviation="3" result="g"/><feFlood flood-opacity="0.161"/><feComposite operator="in" in2="g"/><feComposite in="SourceGraphic"/></filter><linearGradient id="h" x1="1.185" y1="-0.165" x2="0.5" y2="1" xlink:href="#c"/><linearGradient id="i" x1="-0.574" y1="3.914" x2="0.786" y2="-0.296" gradientUnits="objectBoundingBox"><stop offset="0" stop-color="#93f9b9"/><stop offset="0.097" stop-color="#93f9b9"/><stop offset="1" stop-color="#1d976c"/></linearGradient><linearGradient id="j" x1="1.126" y1="-2.49" x2="0.163" y2="0.761" xlink:href="#c"/><clipPath id="l"><rect width="500" height="125"/></clipPath></defs><g id="k" class="a"><rect class="m" width="500" height="125"/><path class="b" d="M0,34.119S37.007,86.91,69.012,75.972s37.159-27.437,58.67,0,65.8,3.184,65.8,3.184V2.957L5.171,0Z" transform="translate(377.843 -77.523) rotate(22)"/><path class="b" d="M0,0H180.207V56.289H0Z" transform="matrix(0.883, -0.469, 0.469, 0.883, -52.158, 7.142)"/><g transform="translate(260.135 23)"><g class="p" transform="matrix(1, 0, 0, 1, -260.13, -23)"><path class="b" d="M0,0H63.976V63.976H0Z" transform="translate(260.13 23)"/></g><g transform="translate(13.789 12.217)"><g class="o" transform="matrix(1, 0, 0, 1, -273.92, -35.22)"><path class="c" d="M16.537,13.532a1.458,1.458,0,1,1-1.453-1.581A1.518,1.518,0,0,1,16.537,13.532ZM9.885,11.951a1.587,1.587,0,0,0,0,3.162,1.518,1.518,0,0,0,1.453-1.581A1.508,1.508,0,0,0,9.885,11.951ZM24.927,2.934V28.488c-3.588-3.171-2.441-2.121-6.609-6l.755,2.635H2.92A2.927,2.927,0,0,1,0,22.192V2.934A2.927,2.927,0,0,1,2.92,0H22.007A2.927,2.927,0,0,1,24.927,2.934Zm-4.059,13.5a19.075,19.075,0,0,0-2.051-8.3,7.044,7.044,0,0,0-4-1.5l-.2.228a9.48,9.48,0,0,1,3.547,1.809,12.1,12.1,0,0,0-10.64-.413c-.527.242-.84.413-.84.413a9.609,9.609,0,0,1,3.746-1.866l-.142-.171a7.044,7.044,0,0,0-4,1.5,19.075,19.075,0,0,0-2.051,8.3A5.164,5.164,0,0,0,8.575,18.6s.527-.641.954-1.182a4.43,4.43,0,0,1-2.493-1.681c.21.147.555.337.584.356a10.383,10.383,0,0,0,8.888.5,8.151,8.151,0,0,0,1.638-.84,4.5,4.5,0,0,1-2.578,1.7c.427.541.94,1.154.94,1.154a5.207,5.207,0,0,0,4.359-2.165Z" transform="translate(279.99 35.22)"/></g><path class="d" d="M-19.722-1.4h-1.05l-.3-.952H-22.6l-.3.952h-1.044l1.557-4.277h1.142ZM-21.3-3.091l-.459-1.438a1.873,1.873,0,0,1-.072-.385h-.024a1.631,1.631,0,0,1-.075.373l-.465,1.45Zm4.046,1.655a1.393,1.393,0,0,1-.629.11q-1,0-1-1.035v-1.4h-.5v-.695h.5v-.659l.94-.268v.928h.686v.695h-.686v1.235q0,.477.379.477a.639.639,0,0,0,.307-.087Zm3.768.036h-.94V-3.136q0-.671-.489-.671a.5.5,0,0,0-.406.188.725.725,0,0,0-.155.477V-1.4h-.943V-5.922h.943V-4h.012a1.071,1.071,0,0,1,.94-.528q1.038,0,1.038,1.253Zm3.959-3.054-1.241,3.3q-.447,1.19-1.348,1.19a1.727,1.727,0,0,1-.564-.078V-.794a.793.793,0,0,0,.409.11.51.51,0,0,0,.507-.343l.161-.379L-12.84-4.454H-11.8l.57,1.858a2.415,2.415,0,0,1,.084.409h.012a2.849,2.849,0,0,1,.1-.4l.576-1.864Zm.484,2.974v-.764a2.007,2.007,0,0,0,.464.209,1.538,1.538,0,0,0,.437.069.937.937,0,0,0,.4-.069A.222.222,0,0,0-7.6-2.244a.193.193,0,0,0-.066-.149.61.61,0,0,0-.169-.1,1.912,1.912,0,0,0-.225-.081q-.122-.036-.236-.081a2.258,2.258,0,0,1-.321-.148.927.927,0,0,1-.233-.183.721.721,0,0,1-.143-.242.964.964,0,0,1-.049-.325A.837.837,0,0,1-8.927-4a.914.914,0,0,1,.3-.3A1.363,1.363,0,0,1-8.2-4.474a2.224,2.224,0,0,1,.5-.055,2.772,2.772,0,0,1,.412.031,3.072,3.072,0,0,1,.412.091v.728a1.487,1.487,0,0,0-.383-.157,1.617,1.617,0,0,0-.4-.052.889.889,0,0,0-.174.016.575.575,0,0,0-.145.048.266.266,0,0,0-.1.081.185.185,0,0,0-.036.112.207.207,0,0,0,.054.143.466.466,0,0,0,.14.1,1.384,1.384,0,0,0,.192.078l.21.07a2.734,2.734,0,0,1,.34.143,1.087,1.087,0,0,1,.261.182.715.715,0,0,1,.167.245.869.869,0,0,1,.058.334.871.871,0,0,1-.118.464.943.943,0,0,1-.313.313,1.42,1.42,0,0,1-.45.176,2.5,2.5,0,0,1-.529.055A2.729,2.729,0,0,1-9.039-1.481Zm6.3-3.108-.116.537H-3.4l-.164.74h.617l-.134.537h-.594L-3.91-1.743h-.6l.218-1.032h-.683l-.221,1.032h-.6l.212-1.032h-.555l.11-.537h.561l.158-.74h-.6l.1-.537h.611l.221-1.062h.611l-.221,1.062H-3.9l.227-1.062h.606l-.221,1.062Zm-1.271.537H-4.7l-.164.74h.689Zm4.929.307A3.794,3.794,0,0,1,.8-2.726a2.185,2.185,0,0,1-.365.759,1.614,1.614,0,0,1-.586.476,1.8,1.8,0,0,1-.784.166,2.229,2.229,0,0,1-.9-.167v-.776a1.448,1.448,0,0,0,.811.221A.934.934,0,0,0-.27-2.378a1.477,1.477,0,0,0,.277-.957l-.018-.006a.968.968,0,0,1-.862.421,1.183,1.183,0,0,1-.485-.1,1.164,1.164,0,0,1-.385-.273A1.247,1.247,0,0,1-2-3.709a1.5,1.5,0,0,1-.091-.531,1.648,1.648,0,0,1,.11-.614,1.407,1.407,0,0,1,.309-.477,1.362,1.362,0,0,1,.476-.309,1.669,1.669,0,0,1,.614-.109,1.407,1.407,0,0,1,.626.136,1.316,1.316,0,0,1,.473.392,1.831,1.831,0,0,1,.3.629A3.189,3.189,0,0,1,.923-3.744Zm-.952-.5A1.108,1.108,0,0,0-.07-4.554.812.812,0,0,0-.187-4.8a.566.566,0,0,0-.182-.166A.468.468,0,0,0-.6-5.03a.479.479,0,0,0-.225.054.549.549,0,0,0-.177.148.7.7,0,0,0-.116.225.93.93,0,0,0-.042.283.968.968,0,0,0,.042.3.634.634,0,0,0,.118.219.494.494,0,0,0,.183.136.6.6,0,0,0,.239.046.512.512,0,0,0,.227-.049A.546.546,0,0,0-.182-3.8.6.6,0,0,0-.069-4,.725.725,0,0,0-.029-4.246ZM1.849-1.54v-.82a1.656,1.656,0,0,0,1,.313A.9.9,0,0,0,3.413-2.2a.515.515,0,0,0,.2-.433.492.492,0,0,0-.249-.441,1.29,1.29,0,0,0-.685-.155h-.4v-.722h.367q.835,0,.835-.555,0-.522-.641-.522a1.462,1.462,0,0,0-.835.277v-.77a2.307,2.307,0,0,1,1.05-.227,1.584,1.584,0,0,1,1.022.3.94.94,0,0,1,.365.767,1,1,0,0,1-.85,1.05v.015a1.156,1.156,0,0,1,.716.33.929.929,0,0,1,.262.67,1.148,1.148,0,0,1-.438.949,1.9,1.9,0,0,1-1.211.349A2.341,2.341,0,0,1,1.849-1.54Zm6.31-4.137v2.7h.513v.7H8.159V-1.4H7.3v-.877H5.435v-.737q.248-.277.513-.607T6.461-4.3q.248-.349.461-.7a7.042,7.042,0,0,0,.362-.676Zm-1.879,2.7H7.3V-4.475q-.1.194-.227.392t-.257.391q-.134.192-.271.373T6.279-2.981ZM12.4-5.134q-.286.516-.513.968t-.4.892a8.411,8.411,0,0,0-.3.895,8.644,8.644,0,0,0-.2.98h-.984a8.054,8.054,0,0,1,.221-.96,9.007,9.007,0,0,1,.318-.9q.18-.434.4-.846t.464-.805H9.424v-.77H12.4Z" transform="translate(23.943 39.42)"/></g></g><g transform="translate(347.184 23)"><g class="n" transform="matrix(1, 0, 0, 1, -347.18, -23)"><path class="b" d="M0,0H63.976V63.976H0Z" transform="translate(347.18 23)"/></g><g transform="translate(5.26 8.399)"><path class="d" d="M-71.112-1.481v-.764a2.007,2.007,0,0,0,.464.209,1.538,1.538,0,0,0,.437.069.937.937,0,0,0,.4-.069.222.222,0,0,0,.145-.209.193.193,0,0,0-.066-.149.61.61,0,0,0-.169-.1,1.913,1.913,0,0,0-.225-.081q-.122-.036-.236-.081a2.257,2.257,0,0,1-.321-.148.927.927,0,0,1-.233-.183.721.721,0,0,1-.143-.242.964.964,0,0,1-.049-.325A.837.837,0,0,1-71-4a.914.914,0,0,1,.3-.3,1.363,1.363,0,0,1,.427-.173,2.224,2.224,0,0,1,.5-.055,2.772,2.772,0,0,1,.412.031,3.073,3.073,0,0,1,.412.091v.728a1.488,1.488,0,0,0-.383-.157,1.617,1.617,0,0,0-.4-.052.889.889,0,0,0-.174.016.575.575,0,0,0-.145.048.266.266,0,0,0-.1.081.185.185,0,0,0-.036.112.207.207,0,0,0,.054.143.466.466,0,0,0,.14.1,1.384,1.384,0,0,0,.192.078l.21.07a2.734,2.734,0,0,1,.34.143,1.087,1.087,0,0,1,.261.182.715.715,0,0,1,.167.245.869.869,0,0,1,.058.334.871.871,0,0,1-.118.464.943.943,0,0,1-.313.313,1.42,1.42,0,0,1-.45.176,2.5,2.5,0,0,1-.529.055A2.729,2.729,0,0,1-71.112-1.481Zm6.125.081h-.94V-3.136q0-.671-.489-.671a.5.5,0,0,0-.406.188.725.725,0,0,0-.155.477V-1.4h-.943V-5.922h.943V-4h.012a1.071,1.071,0,0,1,.94-.528q1.038,0,1.038,1.253Zm3.592,0h-.892v-.438H-62.3a1,1,0,0,1-.91.513.952.952,0,0,1-.7-.252.9.9,0,0,1-.255-.673q0-.889,1.053-1.026l.829-.11q0-.5-.543-.5a1.853,1.853,0,0,0-1.038.325v-.71a2.335,2.335,0,0,1,.538-.179,2.83,2.83,0,0,1,.622-.078,1.153,1.153,0,0,1,1.306,1.3Zm-.886-1.241v-.206l-.555.072q-.459.06-.459.415a.343.343,0,0,0,.112.264.43.43,0,0,0,.3.1.558.558,0,0,0,.432-.183A.663.663,0,0,0-62.28-2.641ZM-57.441-1.4h-.94v-.465H-58.4a1.066,1.066,0,0,1-.934.54q-1.062,0-1.062-1.286V-4.454h.94v1.76q0,.647.513.647a.507.507,0,0,0,.406-.177.716.716,0,0,0,.152-.482V-4.454h.94Zm4.049,0h-.94V-3.1q0-.71-.507-.71a.5.5,0,0,0-.4.188.716.716,0,0,0-.158.477V-1.4h-.943V-4.454h.943v.483h.012a1.08,1.08,0,0,1,.981-.558q1.014,0,1.014,1.259Zm3.366-.11a1.864,1.864,0,0,1-.922.185,1.559,1.559,0,0,1-1.139-.427,1.473,1.473,0,0,1-.435-1.1,1.623,1.623,0,0,1,.467-1.227,1.725,1.725,0,0,1,1.248-.449,1.6,1.6,0,0,1,.781.143v.8a1.074,1.074,0,0,0-.659-.221.869.869,0,0,0-.643.237.885.885,0,0,0-.237.655.87.87,0,0,0,.227.637.833.833,0,0,0,.623.231,1.244,1.244,0,0,0,.689-.221Zm3.855.11h-.94V-3.136q0-.671-.489-.671a.5.5,0,0,0-.406.188.725.725,0,0,0-.155.477V-1.4H-49.1V-5.922h.943V-4h.012a1.071,1.071,0,0,1,.94-.528q1.038,0,1.038,1.253Zm3.592,0h-.892v-.438h-.012a1,1,0,0,1-.91.513.952.952,0,0,1-.7-.252.9.9,0,0,1-.255-.673q0-.889,1.053-1.026l.829-.11q0-.5-.543-.5a1.853,1.853,0,0,0-1.038.325v-.71a2.335,2.335,0,0,1,.538-.179,2.83,2.83,0,0,1,.622-.078,1.153,1.153,0,0,1,1.306,1.3Zm-.886-1.241v-.206l-.555.072q-.459.06-.459.415a.343.343,0,0,0,.112.264.43.43,0,0,0,.3.1.558.558,0,0,0,.432-.183A.663.663,0,0,0-43.465-2.641ZM-38.578-1.4h-.94V-3.1q0-.71-.507-.71a.5.5,0,0,0-.4.188.716.716,0,0,0-.158.477V-1.4h-.943V-4.454h.943v.483h.012a1.08,1.08,0,0,1,.981-.558q1.014,0,1.014,1.259Zm4.04,0h-.943v-.421h-.012a1.057,1.057,0,0,1-.946.5,1.158,1.158,0,0,1-.922-.4,1.673,1.673,0,0,1-.349-1.129,1.821,1.821,0,0,1,.385-1.214,1.255,1.255,0,0,1,1.008-.456.858.858,0,0,1,.823.424h.012V-5.922h.943Zm-.925-1.485v-.23a.723.723,0,0,0-.173-.5.571.571,0,0,0-.45-.2.568.568,0,0,0-.489.246,1.143,1.143,0,0,0-.176.676.989.989,0,0,0,.17.62.564.564,0,0,0,.471.218.567.567,0,0,0,.467-.23A.957.957,0,0,0-35.463-2.885Zm4.768.227h-1.992q.048.665.838.665a1.636,1.636,0,0,0,.886-.239v.68a2.327,2.327,0,0,1-1.1.227,1.549,1.549,0,0,1-1.148-.41,1.55,1.55,0,0,1-.409-1.144,1.635,1.635,0,0,1,.441-1.205,1.471,1.471,0,0,1,1.086-.444,1.335,1.335,0,0,1,1.034.4A1.528,1.528,0,0,1-30.7-3.055Zm-.874-.579q0-.656-.531-.656a.507.507,0,0,0-.392.188.853.853,0,0,0-.2.468Zm3.733-.367a.818.818,0,0,0-.4-.092.572.572,0,0,0-.48.225.982.982,0,0,0-.173.613V-1.4h-.943V-4.454h.943v.567h.012a.815.815,0,0,1,.805-.62.607.607,0,0,1,.233.036Zm.675,2.279a.55.55,0,0,1-.388-.143.46.46,0,0,1-.155-.352.443.443,0,0,1,.16-.352.589.589,0,0,1,.4-.137.567.567,0,0,1,.4.139.452.452,0,0,1,.154.35.455.455,0,0,1-.157.356A.591.591,0,0,1-27.161-1.325Zm6.39-.075h-.94V-3.142q0-.665-.489-.665a.449.449,0,0,0-.379.2.821.821,0,0,0-.146.5V-1.4h-.943V-3.16q0-.647-.48-.647a.46.46,0,0,0-.386.191.84.84,0,0,0-.145.519v1.7h-.943V-4.454h.943v.477h.012a1.127,1.127,0,0,1,.41-.4,1.127,1.127,0,0,1,.577-.154.88.88,0,0,1,.886.57,1.13,1.13,0,0,1,1.026-.57q1,0,1,1.229Zm3.8-1.259h-1.992q.048.665.838.665a1.636,1.636,0,0,0,.886-.239v.68a2.327,2.327,0,0,1-1.1.227,1.549,1.549,0,0,1-1.148-.41A1.55,1.55,0,0,1-19.9-2.879a1.635,1.635,0,0,1,.441-1.205,1.471,1.471,0,0,1,1.086-.444,1.335,1.335,0,0,1,1.034.4,1.528,1.528,0,0,1,.365,1.077Zm-.874-.579q0-.656-.531-.656a.507.507,0,0,0-.392.188.853.853,0,0,0-.2.468Z" transform="translate(71.112 47.005)"/><path class="e" d="M22.137,18c-.954-5.875-3.2-10-5.822-10s-4.868,4.125-5.822,10ZM10,24.315a41.233,41.233,0,0,0,.217,4.21h12.19a41.233,41.233,0,0,0,.217-4.21,41.233,41.233,0,0,0-.217-4.21H10.216A41.233,41.233,0,0,0,10,24.315ZM31.36,18A16.349,16.349,0,0,0,20.966,8.684,22.2,22.2,0,0,1,24.255,18Zm-19.7-9.315A16.338,16.338,0,0,0,1.27,18h7.1a22.113,22.113,0,0,1,3.283-9.315ZM32.063,20.1H24.518c.138,1.381.217,2.8.217,4.21s-.079,2.829-.217,4.21h7.539a16.174,16.174,0,0,0,.566-4.21,16.457,16.457,0,0,0-.559-4.21ZM7.894,24.315c0-1.414.079-2.829.217-4.21H.566a15.949,15.949,0,0,0,0,8.42H8.1C7.973,27.143,7.894,25.729,7.894,24.315Zm2.6,6.315c.954,5.875,3.2,10,5.822,10s4.868-4.125,5.822-10Zm10.479,9.315A16.365,16.365,0,0,0,31.366,30.63h-7.1A22.2,22.2,0,0,1,20.972,39.945ZM1.27,30.63a16.349,16.349,0,0,0,10.394,9.315A22.2,22.2,0,0,1,8.374,30.63H1.27Z" transform="translate(10.776 -8)"/></g></g><path class="f" d="M0,32.541S35.3,82.892,65.822,72.459s35.441-26.169,55.957,0,62.76,3.037,62.76,3.037V2.82L4.932,0Z" transform="translate(388.898 -74.172) rotate(22)"/><path class="g" d="M0,21.946S23.8,55.9,44.389,48.866s23.9-17.648,37.737,0,42.325,2.048,42.325,2.048V1.9L3.326,0Z" transform="translate(430.85 -49.864) rotate(22)"/><g transform="translate(32.782 31)"><path class="b" d="M1.7-7.038v-4.3a8.253,8.253,0,0,0,2.537,1.47A8.154,8.154,0,0,0,7-9.374a6.132,6.132,0,0,0,1.429-.148,3.348,3.348,0,0,0,1.02-.409,1.785,1.785,0,0,0,.611-.617,1.541,1.541,0,0,0,.2-.772,1.668,1.668,0,0,0-.322-1.007,3.466,3.466,0,0,0-.879-.819,9.186,9.186,0,0,0-1.322-.725q-.765-.349-1.651-.711a8.426,8.426,0,0,1-3.362-2.3,5.011,5.011,0,0,1-1.107-3.275,5.216,5.216,0,0,1,.6-2.584,5.13,5.13,0,0,1,1.644-1.778,7.372,7.372,0,0,1,2.409-1.027,12.38,12.38,0,0,1,2.9-.329,17.438,17.438,0,0,1,2.664.181,10.478,10.478,0,0,1,2.141.557v4.013a6.474,6.474,0,0,0-1.054-.591,8.348,8.348,0,0,0-1.174-.423,8.958,8.958,0,0,0-1.2-.248,8.5,8.5,0,0,0-1.134-.081,5.915,5.915,0,0,0-1.342.141,3.443,3.443,0,0,0-1.02.4,1.97,1.97,0,0,0-.644.611,1.448,1.448,0,0,0-.228.8,1.525,1.525,0,0,0,.255.866,2.925,2.925,0,0,0,.725.725,7.691,7.691,0,0,0,1.141.671q.671.329,1.517.678a16.9,16.9,0,0,1,2.074,1.027,7.372,7.372,0,0,1,1.577,1.228,4.784,4.784,0,0,1,1.007,1.564,5.525,5.525,0,0,1,.349,2.047A5.483,5.483,0,0,1,14.214-9a4.958,4.958,0,0,1-1.658,1.772,7.188,7.188,0,0,1-2.436.973,14.079,14.079,0,0,1-2.933.3,16.308,16.308,0,0,1-3.013-.268A9.1,9.1,0,0,1,1.7-7.038ZM32.145-6.3H27.917v-7.812q0-3.02-2.2-3.02a2.253,2.253,0,0,0-1.825.846,3.262,3.262,0,0,0-.7,2.148V-6.3H18.951V-26.648h4.241V-18h.054a4.82,4.82,0,0,1,4.228-2.376q4.671,0,4.671,5.637Zm16.166,0H44.3V-8.273h-.054A4.479,4.479,0,0,1,40.15-5.964,4.282,4.282,0,0,1,37-7.1a4.064,4.064,0,0,1-1.148-3.027q0-4,4.738-4.617l3.731-.5q0-2.255-2.443-2.255a8.338,8.338,0,0,0-4.671,1.463v-3.195a10.509,10.509,0,0,1,2.423-.805,12.736,12.736,0,0,1,2.8-.349q5.879,0,5.879,5.866Zm-3.986-5.584v-.926l-2.5.322q-2.067.268-2.067,1.866a1.542,1.542,0,0,0,.5,1.188,1.934,1.934,0,0,0,1.362.463A2.511,2.511,0,0,0,43.573-9.8,2.982,2.982,0,0,0,44.325-11.884ZM66.1-6.3H61.873V-8.394h-.067a4.8,4.8,0,0,1-4.2,2.429q-4.778,0-4.778-5.785v-8.3h4.228v7.919q0,2.913,2.309,2.913a2.284,2.284,0,0,0,1.825-.8,3.22,3.22,0,0,0,.685-2.168v-7.866H66.1Zm18.22,0H80.093v-7.637q0-3.195-2.282-3.195A2.264,2.264,0,0,0,76-16.286a3.221,3.221,0,0,0-.711,2.148V-6.3H71.046V-20.045h4.241v2.174h.054a4.86,4.86,0,0,1,4.416-2.51q4.564,0,4.564,5.664Z" transform="translate(2.383 27.648)"/><path class="h" d="M1.32-5.474V-8.815A6.419,6.419,0,0,0,3.294-7.672a6.342,6.342,0,0,0,2.151.381,4.769,4.769,0,0,0,1.112-.115,2.6,2.6,0,0,0,.793-.318,1.389,1.389,0,0,0,.475-.48,1.2,1.2,0,0,0,.157-.6,1.3,1.3,0,0,0-.251-.783,2.7,2.7,0,0,0-.684-.637,7.145,7.145,0,0,0-1.028-.564q-.6-.271-1.284-.553a6.554,6.554,0,0,1-2.615-1.785,3.9,3.9,0,0,1-.861-2.547,4.057,4.057,0,0,1,.47-2.01,3.99,3.99,0,0,1,1.279-1.383,5.734,5.734,0,0,1,1.874-.8,9.629,9.629,0,0,1,2.255-.256,13.563,13.563,0,0,1,2.072.141,8.15,8.15,0,0,1,1.665.433v3.121a5.035,5.035,0,0,0-.82-.459,6.493,6.493,0,0,0-.913-.329,6.968,6.968,0,0,0-.934-.193,6.613,6.613,0,0,0-.882-.063,4.6,4.6,0,0,0-1.044.11,2.678,2.678,0,0,0-.793.308,1.532,1.532,0,0,0-.5.475,1.126,1.126,0,0,0-.177.621,1.186,1.186,0,0,0,.2.673,2.275,2.275,0,0,0,.564.564,5.982,5.982,0,0,0,.887.522q.522.256,1.18.527a13.145,13.145,0,0,1,1.613.8,5.734,5.734,0,0,1,1.227.955,3.721,3.721,0,0,1,.783,1.216,4.3,4.3,0,0,1,.271,1.592A4.265,4.265,0,0,1,11.055-7,3.856,3.856,0,0,1,9.766-5.626a5.591,5.591,0,0,1-1.895.757,10.951,10.951,0,0,1-2.281.23,12.684,12.684,0,0,1-2.344-.209A7.075,7.075,0,0,1,1.32-5.474ZM25-4.9H21.713v-6.076q0-2.349-1.712-2.349a1.753,1.753,0,0,0-1.42.658A2.537,2.537,0,0,0,18.039-11v6.1h-3.3V-20.727h3.3V-14h.042a3.749,3.749,0,0,1,3.289-1.848Q25-15.851,25-11.467Zm12.574,0H34.454V-6.435h-.042a3.484,3.484,0,0,1-3.184,1.8,3.331,3.331,0,0,1-2.448-.882,3.161,3.161,0,0,1-.893-2.354q0-3.111,3.685-3.591l2.9-.386q0-1.754-1.9-1.754a6.485,6.485,0,0,0-3.633,1.138v-2.485a8.173,8.173,0,0,1,1.884-.626A9.9,9.9,0,0,1,33-15.851q4.573,0,4.573,4.562Zm-3.1-4.343v-.72l-1.942.251q-1.608.209-1.608,1.451a1.2,1.2,0,0,0,.391.924,1.5,1.5,0,0,0,1.06.36A1.953,1.953,0,0,0,33.89-7.62,2.319,2.319,0,0,0,34.475-9.243ZM51.412-4.9H48.124V-6.529h-.052A3.731,3.731,0,0,1,44.8-4.639q-3.717,0-3.717-4.5V-15.59h3.289v6.159q0,2.265,1.8,2.265a1.776,1.776,0,0,0,1.42-.621,2.5,2.5,0,0,0,.532-1.686V-15.59h3.289Zm14.171,0H62.294v-5.94q0-2.485-1.775-2.485a1.761,1.761,0,0,0-1.409.658A2.506,2.506,0,0,0,58.557-11v6.1h-3.3V-15.59h3.3V-13.9H58.6a3.78,3.78,0,0,1,3.435-1.952q3.549,0,3.549,4.406Z" transform="translate(12.976 25.248)"/></g><path class="b" d="M6220,158.861s13.508-1.012,31.5,13.615,55.84-20.969,106.655,8.368,62.6,24.645,62.6,24.645H6220V158.861Z" transform="translate(-6219.462 -80.766)"/><path class="i" d="M6220,146.69s13.914,32.918,48.345,32.918,33.469-27.777,81.066,0,58.632,23.334,58.632,23.334H6220V146.69Z" transform="translate(-6220 -77.025)"/><path class="g" d="M6228.542,151.444s-4.717,13.569,14.339,13.569,22.4-10.577,48.743,4.632,32.451,12.776,32.451,12.776H6220V158.835l12.1-5.178Z" transform="translate(-6231 -57.23)"/><g transform="translate(32.782 31)"><path class="b" d="M1.7-7.038v-4.3a8.253,8.253,0,0,0,2.537,1.47A8.154,8.154,0,0,0,7-9.374a6.132,6.132,0,0,0,1.429-.148,3.348,3.348,0,0,0,1.02-.409,1.785,1.785,0,0,0,.611-.617,1.541,1.541,0,0,0,.2-.772,1.668,1.668,0,0,0-.322-1.007,3.466,3.466,0,0,0-.879-.819,9.186,9.186,0,0,0-1.322-.725q-.765-.349-1.651-.711a8.426,8.426,0,0,1-3.362-2.3,5.011,5.011,0,0,1-1.107-3.275,5.216,5.216,0,0,1,.6-2.584,5.13,5.13,0,0,1,1.644-1.778,7.372,7.372,0,0,1,2.409-1.027,12.38,12.38,0,0,1,2.9-.329,17.438,17.438,0,0,1,2.664.181,10.478,10.478,0,0,1,2.141.557v4.013a6.474,6.474,0,0,0-1.054-.591,8.348,8.348,0,0,0-1.174-.423,8.958,8.958,0,0,0-1.2-.248,8.5,8.5,0,0,0-1.134-.081,5.915,5.915,0,0,0-1.342.141,3.443,3.443,0,0,0-1.02.4,1.97,1.97,0,0,0-.644.611,1.448,1.448,0,0,0-.228.8,1.525,1.525,0,0,0,.255.866,2.925,2.925,0,0,0,.725.725,7.691,7.691,0,0,0,1.141.671q.671.329,1.517.678a16.9,16.9,0,0,1,2.074,1.027,7.372,7.372,0,0,1,1.577,1.228,4.784,4.784,0,0,1,1.007,1.564,5.525,5.525,0,0,1,.349,2.047A5.483,5.483,0,0,1,14.214-9a4.958,4.958,0,0,1-1.658,1.772,7.188,7.188,0,0,1-2.436.973,14.079,14.079,0,0,1-2.933.3,16.308,16.308,0,0,1-3.013-.268A9.1,9.1,0,0,1,1.7-7.038ZM32.145-6.3H27.917v-7.812q0-3.02-2.2-3.02a2.253,2.253,0,0,0-1.825.846,3.262,3.262,0,0,0-.7,2.148V-6.3H18.951V-26.648h4.241V-18h.054a4.82,4.82,0,0,1,4.228-2.376q4.671,0,4.671,5.637Zm16.166,0H44.3V-8.273h-.054A4.479,4.479,0,0,1,40.15-5.964,4.282,4.282,0,0,1,37-7.1a4.064,4.064,0,0,1-1.148-3.027q0-4,4.738-4.617l3.731-.5q0-2.255-2.443-2.255a8.338,8.338,0,0,0-4.671,1.463v-3.195a10.509,10.509,0,0,1,2.423-.805,12.736,12.736,0,0,1,2.8-.349q5.879,0,5.879,5.866Zm-3.986-5.584v-.926l-2.5.322q-2.067.268-2.067,1.866a1.542,1.542,0,0,0,.5,1.188,1.934,1.934,0,0,0,1.362.463A2.511,2.511,0,0,0,43.573-9.8,2.982,2.982,0,0,0,44.325-11.884ZM66.1-6.3H61.873V-8.394h-.067a4.8,4.8,0,0,1-4.2,2.429q-4.778,0-4.778-5.785v-8.3h4.228v7.919q0,2.913,2.309,2.913a2.284,2.284,0,0,0,1.825-.8,3.22,3.22,0,0,0,.685-2.168v-7.866H66.1Zm18.22,0H80.093v-7.637q0-3.195-2.282-3.195A2.264,2.264,0,0,0,76-16.286a3.221,3.221,0,0,0-.711,2.148V-6.3H71.046V-20.045h4.241v2.174h.054a4.86,4.86,0,0,1,4.416-2.51q4.564,0,4.564,5.664Z" transform="translate(2.383 27.648)"/><path class="h" d="M1.32-5.474V-8.815A6.419,6.419,0,0,0,3.294-7.672a6.342,6.342,0,0,0,2.151.381,4.769,4.769,0,0,0,1.112-.115,2.6,2.6,0,0,0,.793-.318,1.389,1.389,0,0,0,.475-.48,1.2,1.2,0,0,0,.157-.6,1.3,1.3,0,0,0-.251-.783,2.7,2.7,0,0,0-.684-.637,7.145,7.145,0,0,0-1.028-.564q-.6-.271-1.284-.553a6.554,6.554,0,0,1-2.615-1.785,3.9,3.9,0,0,1-.861-2.547,4.057,4.057,0,0,1,.47-2.01,3.99,3.99,0,0,1,1.279-1.383,5.734,5.734,0,0,1,1.874-.8,9.629,9.629,0,0,1,2.255-.256,13.563,13.563,0,0,1,2.072.141,8.15,8.15,0,0,1,1.665.433v3.121a5.035,5.035,0,0,0-.82-.459,6.493,6.493,0,0,0-.913-.329,6.968,6.968,0,0,0-.934-.193,6.613,6.613,0,0,0-.882-.063,4.6,4.6,0,0,0-1.044.11,2.678,2.678,0,0,0-.793.308,1.532,1.532,0,0,0-.5.475,1.126,1.126,0,0,0-.177.621,1.186,1.186,0,0,0,.2.673,2.275,2.275,0,0,0,.564.564,5.982,5.982,0,0,0,.887.522q.522.256,1.18.527a13.145,13.145,0,0,1,1.613.8,5.734,5.734,0,0,1,1.227.955,3.721,3.721,0,0,1,.783,1.216,4.3,4.3,0,0,1,.271,1.592A4.265,4.265,0,0,1,11.055-7,3.856,3.856,0,0,1,9.766-5.626a5.591,5.591,0,0,1-1.895.757,10.951,10.951,0,0,1-2.281.23,12.684,12.684,0,0,1-2.344-.209A7.075,7.075,0,0,1,1.32-5.474ZM25-4.9H21.713v-6.076q0-2.349-1.712-2.349a1.753,1.753,0,0,0-1.42.658A2.537,2.537,0,0,0,18.039-11v6.1h-3.3V-20.727h3.3V-14h.042a3.749,3.749,0,0,1,3.289-1.848Q25-15.851,25-11.467Zm12.574,0H34.454V-6.435h-.042a3.484,3.484,0,0,1-3.184,1.8,3.331,3.331,0,0,1-2.448-.882,3.161,3.161,0,0,1-.893-2.354q0-3.111,3.685-3.591l2.9-.386q0-1.754-1.9-1.754a6.485,6.485,0,0,0-3.633,1.138v-2.485a8.173,8.173,0,0,1,1.884-.626A9.9,9.9,0,0,1,33-15.851q4.573,0,4.573,4.562Zm-3.1-4.343v-.72l-1.942.251q-1.608.209-1.608,1.451a1.2,1.2,0,0,0,.391.924,1.5,1.5,0,0,0,1.06.36A1.953,1.953,0,0,0,33.89-7.62,2.319,2.319,0,0,0,34.475-9.243ZM51.412-4.9H48.124V-6.529h-.052A3.731,3.731,0,0,1,44.8-4.639q-3.717,0-3.717-4.5V-15.59h3.289v6.159q0,2.265,1.8,2.265a1.776,1.776,0,0,0,1.42-.621,2.5,2.5,0,0,0,.532-1.686V-15.59h3.289Zm14.171,0H62.294v-5.94q0-2.485-1.775-2.485a1.761,1.761,0,0,0-1.409.658A2.506,2.506,0,0,0,58.557-11v6.1h-3.3V-15.59h3.3V-13.9H58.6a3.78,3.78,0,0,1,3.435-1.952q3.549,0,3.549,4.406Z" transform="translate(12.976 25.248)"/><path class="j" d="M1.9-1.93V0H.641V-5.6H2.617q2.117,0,2.117,1.785a1.713,1.713,0,0,1-.607,1.365A2.406,2.406,0,0,1,2.5-1.93Zm0-2.7v1.746h.5q1.008,0,1.008-.883,0-.863-1.008-.863ZM8.123-2.887a1.071,1.071,0,0,0-.52-.121.748.748,0,0,0-.629.295,1.287,1.287,0,0,0-.227.8V0H5.514V-4H6.748v.742h.016A1.068,1.068,0,0,1,7.818-4.07a.8.8,0,0,1,.3.047ZM10.652.1A2.15,2.15,0,0,1,9.08-.463a2.032,2.032,0,0,1-.572-1.521A2.032,2.032,0,0,1,9.1-3.537,2.243,2.243,0,0,1,10.707-4.1a2.124,2.124,0,0,1,1.563.561,1.993,1.993,0,0,1,.566,1.482A2.115,2.115,0,0,1,12.252-.48,2.174,2.174,0,0,1,10.652.1Zm.031-3.25a.823.823,0,0,0-.68.3A1.326,1.326,0,0,0,9.762-2q0,1.152.93,1.152.887,0,.887-1.184Q11.578-3.152,10.683-3.152ZM16.2-4.977a1.247,1.247,0,0,0-.457-.094q-.594,0-.594.645V-4h.914v.91h-.914V0h-1.23V-3.09h-.672V-4h.672v-.5a1.44,1.44,0,0,1,.445-1.1,1.7,1.7,0,0,1,1.211-.418,2.127,2.127,0,0,1,.625.078Zm4.131,3.328H17.726q.062.871,1.1.871a2.143,2.143,0,0,0,1.16-.312V-.2a3.048,3.048,0,0,1-1.441.3,2.029,2.029,0,0,1-1.5-.537,2.029,2.029,0,0,1-.535-1.5,2.141,2.141,0,0,1,.578-1.578A1.926,1.926,0,0,1,18.5-4.1a1.748,1.748,0,0,1,1.354.52,2,2,0,0,1,.479,1.41Zm-1.145-.758q0-.859-.7-.859a.664.664,0,0,0-.514.246,1.117,1.117,0,0,0-.264.613Zm1.7,2.3v-1a2.628,2.628,0,0,0,.607.273,2.014,2.014,0,0,0,.572.09,1.227,1.227,0,0,0,.518-.09.29.29,0,0,0,.189-.273.253.253,0,0,0-.086-.2.8.8,0,0,0-.221-.137,2.5,2.5,0,0,0-.295-.105q-.16-.047-.309-.105a2.957,2.957,0,0,1-.42-.193,1.214,1.214,0,0,1-.3-.24.944.944,0,0,1-.187-.316,1.263,1.263,0,0,1-.064-.426,1.1,1.1,0,0,1,.146-.578,1.2,1.2,0,0,1,.391-.4,1.785,1.785,0,0,1,.559-.227,2.913,2.913,0,0,1,.654-.072,3.63,3.63,0,0,1,.539.041,4.023,4.023,0,0,1,.539.119v.953a1.948,1.948,0,0,0-.5-.205,2.117,2.117,0,0,0-.525-.068,1.164,1.164,0,0,0-.229.021.753.753,0,0,0-.189.063.348.348,0,0,0-.129.105.243.243,0,0,0-.047.146.271.271,0,0,0,.07.188.611.611,0,0,0,.184.135,1.812,1.812,0,0,0,.252.1l.275.092a3.581,3.581,0,0,1,.445.188,1.424,1.424,0,0,1,.342.238.936.936,0,0,1,.219.32,1.138,1.138,0,0,1,.076.438,1.141,1.141,0,0,1-.154.607,1.235,1.235,0,0,1-.41.41,1.86,1.86,0,0,1-.59.23A3.27,3.27,0,0,1,22.111.1,3.574,3.574,0,0,1,20.888-.105Zm3.6,0v-1a2.628,2.628,0,0,0,.607.273,2.014,2.014,0,0,0,.572.09,1.227,1.227,0,0,0,.518-.09.29.29,0,0,0,.189-.273.253.253,0,0,0-.086-.2.8.8,0,0,0-.221-.137,2.5,2.5,0,0,0-.295-.105q-.16-.047-.309-.105a2.957,2.957,0,0,1-.42-.193,1.214,1.214,0,0,1-.3-.24.944.944,0,0,1-.187-.316,1.263,1.263,0,0,1-.064-.426,1.1,1.1,0,0,1,.146-.578,1.2,1.2,0,0,1,.391-.4,1.785,1.785,0,0,1,.559-.227,2.913,2.913,0,0,1,.654-.072,3.63,3.63,0,0,1,.539.041,4.023,4.023,0,0,1,.539.119v.953a1.948,1.948,0,0,0-.5-.205,2.117,2.117,0,0,0-.525-.068,1.164,1.164,0,0,0-.229.021.753.753,0,0,0-.189.063.348.348,0,0,0-.129.105.243.243,0,0,0-.047.146.271.271,0,0,0,.07.188.611.611,0,0,0,.184.135,1.812,1.812,0,0,0,.252.1l.275.092a3.581,3.581,0,0,1,.445.188,1.424,1.424,0,0,1,.342.238.936.936,0,0,1,.219.32,1.138,1.138,0,0,1,.076.438,1.141,1.141,0,0,1-.154.607,1.235,1.235,0,0,1-.41.41,1.86,1.86,0,0,1-.59.23A3.27,3.27,0,0,1,25.71.1,3.574,3.574,0,0,1,24.488-.105Zm4.486-4.527a.721.721,0,0,1-.512-.186.6.6,0,0,1-.2-.455.577.577,0,0,1,.2-.453.745.745,0,0,1,.512-.176.743.743,0,0,1,.514.176.579.579,0,0,1,.2.453.6.6,0,0,1-.2.461A.733.733,0,0,1,28.974-4.633ZM29.583,0H28.349V-4h1.234Zm3.025.1a2.15,2.15,0,0,1-1.572-.561,2.032,2.032,0,0,1-.572-1.521,2.032,2.032,0,0,1,.594-1.553A2.243,2.243,0,0,1,32.663-4.1a2.124,2.124,0,0,1,1.563.561,1.993,1.993,0,0,1,.566,1.482A2.115,2.115,0,0,1,34.208-.48,2.174,2.174,0,0,1,32.609.1Zm.031-3.25a.823.823,0,0,0-.68.3A1.326,1.326,0,0,0,31.718-2q0,1.152.93,1.152.887,0,.887-1.184Q33.535-3.152,32.64-3.152ZM39.536,0h-1.23V-2.223q0-.93-.664-.93a.659.659,0,0,0-.527.246.938.938,0,0,0-.207.625V0H35.673V-4h1.234v.633h.016a1.414,1.414,0,0,1,1.285-.73q1.328,0,1.328,1.648Zm4.385,0H42.753V-.574h-.016A1.3,1.3,0,0,1,41.546.1a1.246,1.246,0,0,1-.916-.33,1.183,1.183,0,0,1-.334-.881q0-1.164,1.379-1.344L42.761-2.6q0-.656-.711-.656a2.427,2.427,0,0,0-1.359.426v-.93A3.058,3.058,0,0,1,41.4-4a3.706,3.706,0,0,1,.814-.1,1.511,1.511,0,0,1,1.711,1.707Zm-1.16-1.625v-.27l-.727.094q-.6.078-.6.543a.449.449,0,0,0,.146.346.563.563,0,0,0,.4.135.731.731,0,0,0,.566-.24A.868.868,0,0,0,42.761-1.625ZM46.212,0H44.978V-5.922h1.234Zm6.015-4.977a1.247,1.247,0,0,0-.457-.094q-.594,0-.594.645V-4h.914v.91h-.914V0h-1.23V-3.09h-.672V-4h.672v-.5a1.44,1.44,0,0,1,.445-1.1A1.7,1.7,0,0,1,51.6-6.016a2.127,2.127,0,0,1,.625.078Zm3.146,2.09a1.071,1.071,0,0,0-.52-.121.748.748,0,0,0-.629.295,1.287,1.287,0,0,0-.227.8V0H52.765V-4H54v.742h.016a1.068,1.068,0,0,1,1.055-.812.8.8,0,0,1,.3.047ZM57.9.1a2.15,2.15,0,0,1-1.572-.561,2.032,2.032,0,0,1-.572-1.521,2.032,2.032,0,0,1,.594-1.553A2.243,2.243,0,0,1,57.958-4.1a2.124,2.124,0,0,1,1.563.561,1.993,1.993,0,0,1,.566,1.482A2.115,2.115,0,0,1,59.5-.48,2.174,2.174,0,0,1,57.9.1Zm.031-3.25a.823.823,0,0,0-.68.3A1.326,1.326,0,0,0,57.013-2q0,1.152.93,1.152.887,0,.887-1.184Q58.829-3.152,57.934-3.152ZM64.831,0H63.6V-2.223q0-.93-.664-.93a.659.659,0,0,0-.527.246.938.938,0,0,0-.207.625V0H60.968V-4H62.2v.633h.016A1.414,1.414,0,0,1,63.5-4.1q1.328,0,1.328,1.648Zm3.475-.047A1.825,1.825,0,0,1,67.481.1q-1.3,0-1.3-1.355V-3.09h-.648V-4h.648v-.863l1.23-.352V-4h.9v.91h-.9v1.617q0,.625.5.625a.836.836,0,0,0,.4-.113ZM70.9-1.7H68.76v-.863H70.9Zm4.732.055H73.02q.062.871,1.1.871a2.143,2.143,0,0,0,1.16-.312V-.2a3.048,3.048,0,0,1-1.441.3,2.029,2.029,0,0,1-1.5-.537,2.029,2.029,0,0,1-.535-1.5,2.141,2.141,0,0,1,.578-1.578A1.926,1.926,0,0,1,73.8-4.1a1.748,1.748,0,0,1,1.354.52,2,2,0,0,1,.479,1.41Zm-1.145-.758q0-.859-.7-.859a.664.664,0,0,0-.514.246,1.117,1.117,0,0,0-.264.613ZM80.307,0h-1.23V-2.223q0-.93-.664-.93a.659.659,0,0,0-.527.246.938.938,0,0,0-.207.625V0H76.444V-4h1.234v.633h.016a1.415,1.415,0,0,1,1.285-.73q1.328,0,1.328,1.648Zm4.971,0H84.043V-.551h-.016A1.384,1.384,0,0,1,82.789.1a1.517,1.517,0,0,1-1.207-.529,2.191,2.191,0,0,1-.457-1.479,2.385,2.385,0,0,1,.5-1.59,1.644,1.644,0,0,1,1.32-.6,1.123,1.123,0,0,1,1.078.555h.016V-5.922h1.234ZM84.067-1.945v-.3a.947.947,0,0,0-.227-.648.748.748,0,0,0-.59-.258.744.744,0,0,0-.641.322,1.5,1.5,0,0,0-.23.885,1.3,1.3,0,0,0,.223.813.739.739,0,0,0,.617.285.742.742,0,0,0,.611-.3A1.254,1.254,0,0,0,84.067-1.945ZM94.477-4,93.324,0h-1.3l-.59-2.344a2.386,2.386,0,0,1-.066-.512h-.023a3.062,3.062,0,0,1-.078.5L90.637,0H89.356L88.227-4h1.258l.551,2.609a3.394,3.394,0,0,1,.059.445h.023a2.467,2.467,0,0,1,.07-.461L90.875-4h1.176l.617,2.609a4.15,4.15,0,0,1,.055.453h.027a4.509,4.509,0,0,1,.063-.453L93.332-4ZM98.7-1.648H96.088q.062.871,1.1.871a2.143,2.143,0,0,0,1.16-.312V-.2A3.048,3.048,0,0,1,96.9.1a2.029,2.029,0,0,1-1.5-.537,2.029,2.029,0,0,1-.535-1.5,2.141,2.141,0,0,1,.578-1.578A1.926,1.926,0,0,1,96.865-4.1a1.748,1.748,0,0,1,1.354.52,2,2,0,0,1,.479,1.41Zm-1.145-.758q0-.859-.7-.859a.664.664,0,0,0-.514.246,1.117,1.117,0,0,0-.264.613Zm3.209,1.941h-.016V0H99.512V-5.922h1.234V-3.4h.016a1.465,1.465,0,0,1,1.3-.7,1.427,1.427,0,0,1,1.191.531,2.291,2.291,0,0,1,.418,1.453,2.481,2.481,0,0,1-.488,1.605,1.591,1.591,0,0,1-1.3.605A1.26,1.26,0,0,1,100.762-.465Zm-.035-1.687v.41a.936.936,0,0,0,.223.641.724.724,0,0,0,.57.254.757.757,0,0,0,.654-.326,1.575,1.575,0,0,0,.232-.924,1.253,1.253,0,0,0-.213-.775.718.718,0,0,0-.607-.279.785.785,0,0,0-.615.277A1.054,1.054,0,0,0,100.727-2.152ZM110.754,0h-1.234V-.551H109.5A1.384,1.384,0,0,1,108.266.1a1.517,1.517,0,0,1-1.207-.529A2.191,2.191,0,0,1,106.6-1.91a2.385,2.385,0,0,1,.5-1.59,1.644,1.644,0,0,1,1.32-.6,1.123,1.123,0,0,1,1.078.555h.016V-5.922h1.234Zm-1.211-1.945v-.3a.947.947,0,0,0-.227-.648.748.748,0,0,0-.59-.258.744.744,0,0,0-.641.322,1.5,1.5,0,0,0-.23.885,1.3,1.3,0,0,0,.223.813.739.739,0,0,0,.617.285.742.742,0,0,0,.611-.3A1.254,1.254,0,0,0,109.543-1.945Zm5.924.3h-2.609q.062.871,1.1.871a2.143,2.143,0,0,0,1.16-.312V-.2a3.048,3.048,0,0,1-1.441.3,2.029,2.029,0,0,1-1.5-.537,2.029,2.029,0,0,1-.535-1.5,2.141,2.141,0,0,1,.578-1.578,1.926,1.926,0,0,1,1.422-.582,1.748,1.748,0,0,1,1.354.52,2,2,0,0,1,.479,1.41Zm-1.145-.758q0-.859-.7-.859a.664.664,0,0,0-.514.246,1.117,1.117,0,0,0-.264.613ZM120.09-4,118.6,0H117.2l-1.418-4h1.32l.7,2.465a3.6,3.6,0,0,1,.137.711h.016a4.034,4.034,0,0,1,.145-.687L118.8-4Zm4.123,2.352H121.6q.062.871,1.1.871a2.143,2.143,0,0,0,1.16-.312V-.2a3.048,3.048,0,0,1-1.441.3,2.029,2.029,0,0,1-1.5-.537,2.029,2.029,0,0,1-.535-1.5,2.141,2.141,0,0,1,.578-1.578,1.926,1.926,0,0,1,1.422-.582,1.748,1.748,0,0,1,1.354.52,2,2,0,0,1,.479,1.41Zm-1.145-.758q0-.859-.7-.859a.664.664,0,0,0-.514.246,1.117,1.117,0,0,0-.264.613ZM126.261,0h-1.234V-5.922h1.234Zm3.025.1a2.15,2.15,0,0,1-1.572-.561,2.032,2.032,0,0,1-.572-1.521,2.032,2.032,0,0,1,.594-1.553,2.243,2.243,0,0,1,1.605-.561,2.124,2.124,0,0,1,1.563.561,1.993,1.993,0,0,1,.566,1.482,2.115,2.115,0,0,1-.584,1.574A2.174,2.174,0,0,1,129.287.1Zm.031-3.25a.823.823,0,0,0-.68.3A1.326,1.326,0,0,0,128.4-2q0,1.152.93,1.152.887,0,.887-1.184Q130.212-3.152,129.318-3.152ZM133.6-.465h-.016v2.3h-1.234V-4h1.234v.6h.016a1.451,1.451,0,0,1,1.285-.7,1.446,1.446,0,0,1,1.2.533,2.27,2.27,0,0,1,.424,1.451,2.461,2.461,0,0,1-.494,1.605A1.611,1.611,0,0,1,134.7.1,1.245,1.245,0,0,1,133.6-.465Zm-.035-1.641v.32a1.018,1.018,0,0,0,.219.676.712.712,0,0,0,.574.262.757.757,0,0,0,.654-.326,1.575,1.575,0,0,0,.232-.924q0-1.055-.82-1.055a.77.77,0,0,0-.619.287A1.145,1.145,0,0,0,133.566-2.105Zm7.42.457h-2.609q.063.871,1.1.871a2.143,2.143,0,0,0,1.16-.312V-.2a3.048,3.048,0,0,1-1.441.3,2.029,2.029,0,0,1-1.5-.537,2.029,2.029,0,0,1-.535-1.5,2.141,2.141,0,0,1,.578-1.578,1.926,1.926,0,0,1,1.422-.582,1.748,1.748,0,0,1,1.354.52,2,2,0,0,1,.479,1.41Zm-1.145-.758q0-.859-.7-.859a.664.664,0,0,0-.514.246,1.117,1.117,0,0,0-.264.613Zm4.568-.48a1.071,1.071,0,0,0-.52-.121.748.748,0,0,0-.629.295,1.287,1.287,0,0,0-.227.8V0H141.8V-4h1.234v.742h.016A1.068,1.068,0,0,1,144.1-4.07a.8.8,0,0,1,.3.047Zm1.182,1.9L145.017.992h-.961l.4-1.977ZM155.31,0h-1.23V-2.281q0-.871-.641-.871a.589.589,0,0,0-.5.262,1.075,1.075,0,0,0-.191.652V0h-1.234V-2.3q0-.848-.629-.848a.6.6,0,0,0-.506.25,1.1,1.1,0,0,0-.189.68V0h-1.234V-4h1.234v.625h.016a1.476,1.476,0,0,1,.537-.521,1.476,1.476,0,0,1,.756-.2,1.152,1.152,0,0,1,1.16.746A1.48,1.48,0,0,1,154-4.1q1.3,0,1.3,1.609Zm4.65-1.648h-2.609q.063.871,1.1.871a2.143,2.143,0,0,0,1.16-.312V-.2a3.048,3.048,0,0,1-1.441.3,2.029,2.029,0,0,1-1.5-.537,2.029,2.029,0,0,1-.535-1.5,2.141,2.141,0,0,1,.578-1.578,1.926,1.926,0,0,1,1.422-.582,1.748,1.748,0,0,1,1.354.52,2,2,0,0,1,.479,1.41Zm-1.145-.758q0-.859-.7-.859a.664.664,0,0,0-.514.246,1.117,1.117,0,0,0-.264.613ZM164.638,0h-1.23V-2.223q0-.93-.664-.93a.659.659,0,0,0-.527.246.938.938,0,0,0-.207.625V0h-1.234V-4h1.234v.633h.016a1.414,1.414,0,0,1,1.285-.73q1.328,0,1.328,1.648Zm3.475-.047a1.825,1.825,0,0,1-.824.145q-1.3,0-1.3-1.355V-3.09h-.648V-4h.648v-.863l1.23-.352V-4h.9v.91h-.9v1.617q0,.625.5.625a.836.836,0,0,0,.4-.113Zm2.65.145a2.15,2.15,0,0,1-1.572-.561,2.032,2.032,0,0,1-.572-1.521,2.032,2.032,0,0,1,.594-1.553,2.243,2.243,0,0,1,1.605-.561,2.124,2.124,0,0,1,1.563.561,1.993,1.993,0,0,1,.566,1.482,2.115,2.115,0,0,1-.584,1.574A2.174,2.174,0,0,1,170.762.1Zm.031-3.25a.823.823,0,0,0-.68.3,1.326,1.326,0,0,0-.242.852q0,1.152.93,1.152.887,0,.887-1.184Q171.688-3.152,170.794-3.152Zm5.643.266a1.071,1.071,0,0,0-.52-.121.748.748,0,0,0-.629.295,1.287,1.287,0,0,0-.227.8V0h-1.234V-4h1.234v.742h.016a1.068,1.068,0,0,1,1.055-.812.8.8,0,0,1,.3.047Zm1.182,1.9L177.044.992h-.961l.4-1.977ZM3.848,11H2.68v-.574H2.664a1.3,1.3,0,0,1-1.191.672,1.246,1.246,0,0,1-.916-.33,1.183,1.183,0,0,1-.334-.881q0-1.164,1.379-1.344L2.688,8.4q0-.656-.711-.656a2.427,2.427,0,0,0-1.359.426v-.93A3.058,3.058,0,0,1,1.322,7a3.706,3.706,0,0,1,.814-.1A1.511,1.511,0,0,1,3.848,8.609ZM2.688,9.375v-.27L1.961,9.2q-.6.078-.6.543a.449.449,0,0,0,.146.346.563.563,0,0,0,.4.135.731.731,0,0,0,.566-.24A.868.868,0,0,0,2.688,9.375ZM8.767,11H7.537V8.777q0-.93-.664-.93a.659.659,0,0,0-.527.246.938.938,0,0,0-.207.625V11H4.9V7H6.139v.633h.016A1.415,1.415,0,0,1,7.439,6.9q1.328,0,1.328,1.648Zm4.971,0H12.5v-.551h-.016a1.384,1.384,0,0,1-1.238.648,1.517,1.517,0,0,1-1.207-.529A2.191,2.191,0,0,1,9.586,9.09a2.385,2.385,0,0,1,.5-1.59,1.644,1.644,0,0,1,1.32-.6,1.123,1.123,0,0,1,1.078.555H12.5V5.078h1.234ZM12.527,9.055v-.3a.946.946,0,0,0-.227-.648.8.8,0,0,0-1.23.064,1.5,1.5,0,0,0-.23.885,1.3,1.3,0,0,0,.223.813.791.791,0,0,0,1.229-.016A1.254,1.254,0,0,0,12.527,9.055ZM19.05,11.1a2.15,2.15,0,0,1-1.572-.561,2.032,2.032,0,0,1-.572-1.521A2.032,2.032,0,0,1,17.5,7.463,2.243,2.243,0,0,1,19.105,6.9a2.124,2.124,0,0,1,1.563.561,1.993,1.993,0,0,1,.566,1.482,2.115,2.115,0,0,1-.584,1.574A2.174,2.174,0,0,1,19.05,11.1Zm.031-3.25a.823.823,0,0,0-.68.3A1.326,1.326,0,0,0,18.16,9q0,1.152.93,1.152.887,0,.887-1.184Q19.976,7.848,19.082,7.848ZM27.908,7l-1.152,4h-1.3l-.59-2.344a2.386,2.386,0,0,1-.066-.512h-.023a3.062,3.062,0,0,1-.078.5L24.068,11H22.787L21.658,7h1.258l.551,2.609a3.393,3.393,0,0,1,.059.445h.023a2.466,2.466,0,0,1,.07-.461L24.306,7h1.176L26.1,9.609a4.149,4.149,0,0,1,.055.453h.027a4.509,4.509,0,0,1,.063-.453L26.763,7Zm4.529,4h-1.23V8.777q0-.93-.664-.93a.659.659,0,0,0-.527.246.938.938,0,0,0-.207.625V11H28.574V7h1.234v.633h.016a1.415,1.415,0,0,1,1.285-.73q1.328,0,1.328,1.648Zm4.65-1.648H34.478q.063.871,1.1.871a2.143,2.143,0,0,0,1.16-.312V10.8a3.048,3.048,0,0,1-1.441.3,2.029,2.029,0,0,1-1.5-.537,2.029,2.029,0,0,1-.535-1.5,2.141,2.141,0,0,1,.578-1.578A1.926,1.926,0,0,1,35.255,6.9a1.748,1.748,0,0,1,1.354.52,2,2,0,0,1,.479,1.41Zm-1.145-.758q0-.859-.7-.859a.664.664,0,0,0-.514.246,1.117,1.117,0,0,0-.264.613Zm4.568-.48a1.071,1.071,0,0,0-.52-.121.748.748,0,0,0-.629.295,1.287,1.287,0,0,0-.227.8V11H37.9V7h1.234v.742h.016a1.068,1.068,0,0,1,1.055-.812.8.8,0,0,1,.3.047ZM45.359,11.1a2.15,2.15,0,0,1-1.572-.561,2.032,2.032,0,0,1-.572-1.521,2.032,2.032,0,0,1,.594-1.553A2.243,2.243,0,0,1,45.413,6.9a2.124,2.124,0,0,1,1.563.561,1.993,1.993,0,0,1,.566,1.482,2.115,2.115,0,0,1-.584,1.574A2.174,2.174,0,0,1,45.359,11.1Zm.031-3.25a.823.823,0,0,0-.68.3A1.326,1.326,0,0,0,44.468,9q0,1.152.93,1.152.887,0,.887-1.184Q46.284,7.848,45.39,7.848Zm5.521-1.824a1.247,1.247,0,0,0-.457-.094q-.594,0-.594.645V7h.914v.91H49.86V11H48.63V7.91h-.672V7h.672V6.5a1.44,1.44,0,0,1,.445-1.1,1.7,1.7,0,0,1,1.211-.418,2.127,2.127,0,0,1,.625.078ZM53.6,10.785V9.535a2.4,2.4,0,0,0,.738.428,2.373,2.373,0,0,0,.8.143,1.784,1.784,0,0,0,.416-.043.974.974,0,0,0,.3-.119.52.52,0,0,0,.178-.18.448.448,0,0,0,.059-.225A.486.486,0,0,0,56,9.246a1.009,1.009,0,0,0-.256-.238,2.673,2.673,0,0,0-.385-.211q-.223-.1-.48-.207a2.452,2.452,0,0,1-.979-.668,1.458,1.458,0,0,1-.322-.953,1.518,1.518,0,0,1,.176-.752,1.493,1.493,0,0,1,.479-.518,2.146,2.146,0,0,1,.7-.3,3.6,3.6,0,0,1,.844-.1,5.075,5.075,0,0,1,.775.053,3.049,3.049,0,0,1,.623.162V6.688a1.884,1.884,0,0,0-.307-.172,2.429,2.429,0,0,0-.342-.123,2.607,2.607,0,0,0-.35-.072,2.474,2.474,0,0,0-.33-.023,1.721,1.721,0,0,0-.391.041,1,1,0,0,0-.3.115.573.573,0,0,0-.187.178.421.421,0,0,0-.066.232.444.444,0,0,0,.074.252.851.851,0,0,0,.211.211,2.238,2.238,0,0,0,.332.2q.2.1.441.2a4.919,4.919,0,0,1,.6.3,2.146,2.146,0,0,1,.459.357,1.392,1.392,0,0,1,.293.455,1.817,1.817,0,0,1-.076,1.383,1.443,1.443,0,0,1-.482.516,2.092,2.092,0,0,1-.709.283,4.1,4.1,0,0,1-.854.086,4.746,4.746,0,0,1-.877-.078A2.647,2.647,0,0,1,53.6,10.785ZM61.909,7l-1.625,4.32q-.586,1.559-1.766,1.559a2.262,2.262,0,0,1-.738-.1v-.984a1.038,1.038,0,0,0,.535.145.669.669,0,0,0,.664-.449l.211-.5L57.565,7h1.367l.746,2.434a3.163,3.163,0,0,1,.109.535H59.8a3.731,3.731,0,0,1,.129-.527L60.686,7Zm4.439,4h-1.23V8.777q0-.93-.664-.93a.659.659,0,0,0-.527.246.938.938,0,0,0-.207.625V11H62.485V7H63.72v.633h.016A1.415,1.415,0,0,1,65.02,6.9q1.328,0,1.328,1.648Zm4.088-.145a2.441,2.441,0,0,1-1.207.242,2.041,2.041,0,0,1-1.492-.559,1.929,1.929,0,0,1-.57-1.441,2.125,2.125,0,0,1,.611-1.607A2.259,2.259,0,0,1,69.413,6.9a2.1,2.1,0,0,1,1.023.188V8.137a1.407,1.407,0,0,0-.863-.289,1.137,1.137,0,0,0-.842.311,1.159,1.159,0,0,0-.311.857,1.14,1.14,0,0,0,.3.834,1.091,1.091,0,0,0,.816.3,1.629,1.629,0,0,0,.9-.289Zm2.795.242a2.15,2.15,0,0,1-1.572-.561,2.032,2.032,0,0,1-.572-1.521,2.032,2.032,0,0,1,.594-1.553A2.243,2.243,0,0,1,73.286,6.9a2.124,2.124,0,0,1,1.563.561,1.993,1.993,0,0,1,.566,1.482,2.115,2.115,0,0,1-.584,1.574A2.174,2.174,0,0,1,73.231,11.1Zm.031-3.25a.823.823,0,0,0-.68.3A1.326,1.326,0,0,0,72.34,9q0,1.152.93,1.152.887,0,.887-1.184Q74.157,7.848,73.262,7.848Zm5.643.266a1.071,1.071,0,0,0-.52-.121.748.748,0,0,0-.629.295,1.287,1.287,0,0,0-.227.8V11H76.3V7H77.53v.742h.016A1.068,1.068,0,0,1,78.6,6.93a.8.8,0,0,1,.3.047Zm4.217,1.238H80.512q.062.871,1.1.871a2.143,2.143,0,0,0,1.16-.312V10.8a3.048,3.048,0,0,1-1.441.3,2.029,2.029,0,0,1-1.5-.537,2.029,2.029,0,0,1-.535-1.5,2.141,2.141,0,0,1,.578-1.578A1.926,1.926,0,0,1,81.29,6.9a1.748,1.748,0,0,1,1.354.52,2,2,0,0,1,.479,1.41Zm-1.145-.758q0-.859-.7-.859a.664.664,0,0,0-.514.246,1.117,1.117,0,0,0-.264.613Zm2.51,2.5a.72.72,0,0,1-.508-.187.6.6,0,0,1-.2-.461.58.58,0,0,1,.209-.461.772.772,0,0,1,.521-.18.743.743,0,0,1,.518.182.629.629,0,0,1,0,.926A.774.774,0,0,1,84.487,11.1Z" transform="translate(14.218 33)"/></g><g transform="translate(365.167 98.73)"><path class="k" d="M14.113,12.667a4.3,4.3,0,0,0-1.657,8.271l.323-.52a3.693,3.693,0,1,1,1.335.254h-.018l3.143-5.1h-2.17l-.615.992h0l-.207.334-.019.03-.405.653h0l-.313.5-1.172-1.891h.7l.21.337h.758l-.622-.961H11.214l1.926,3.1h0l.367.592.368-.594h0l.352-.567h0l1.188-1.916h.7L13.2,20.887l.015.006-.151.244a4.3,4.3,0,1,0,1.047-8.47Z" transform="translate(0)"/></g><text class="l" transform="translate(386 117.397)"><tspan x="0" y="0">Syncore. All Rights Reserved 2018.</tspan></text></g></svg>