<svg xmlns="http://www.w3.org/2000/svg" xmlns:xlink="http://www.w3.org/1999/xlink" viewBox="0 0 1920 1074"><defs><style>.a{fill:#262626;}.b{fill:url(#a);}.c{fill:#93f9b9;opacity:0.04;}.d{fill:none;}</style><linearGradient id="a" x1="1.494" y1="-0.591" x2="0.4" y2="0.444" gradientUnits="objectBoundingBox"><stop offset="0" stop-color="#93f9b9"/><stop offset="1" stop-color="#1d976c"/></linearGradient></defs><g transform="translate(0 0)"><g transform="translate(0 13.119)"><path class="a" d="M883.874.537c15.457,15.784,71.656,314.771,276,228.55s126.687,39.174,238.672,100.437,59.11,120.592,204.1,122.052,204.107,184.951,130.2,231.952-119.792,249.314,9.128,257.745,247.9,114.483,247.9,114.483V-13.119Z" transform="translate(-69.874)"/><path class="a" d="M0,286.746H0V0H503.266l.144.245L0,286.746Z" transform="translate(0 -13.119)"/><path class="b" d="M829.461-13.119c14.519,15.784,113.558,305.866,305.5,219.645s91.2,45.922,196.392,107.184,88.182,136.407,224.371,137.866,191.722,184.951,122.3,231.952-100.012,221.049,21.085,229.479,220.346,138.787,220.346,138.787V-13.119Z" transform="translate(0.539)"/><path class="c" d="M829.461-13.119c6.352,15.784,49.681,305.866,133.655,219.645s39.9,45.922,85.92,107.184,38.579,136.407,98.16,137.866,83.877,184.951,53.507,231.952-43.754,221.049,9.225,229.479,96.4,138.787,96.4,138.787V-13.119Z" transform="translate(613.673)"/></g><rect class="d" width="1920" height="1074"/></g></svg>