<svg xmlns="http://www.w3.org/2000/svg" xmlns:xlink="http://www.w3.org/1999/xlink" viewBox="0 0 1142.744 987.604">
  <defs>
    <style>
      .cls-1 {
        fill: #565656;
        opacity: 0.1;
      }

      .cls-2 {
        fill: url(#linear-gradient);
      }

      .cls-3 {
        fill: #93f9b9;
        opacity: 0.03;
      }

      .cls-4 {
        filter: url(#Subtraction_28);
      }

      .cls-5 {
        filter: url(#Subtraction_25);
      }
    </style>
    <linearGradient id="linear-gradient" x1="1.475" y1="-0.278" x2="0.179" y2="1.095" gradientUnits="objectBoundingBox">
      <stop offset="0" stop-color="#93f9b9"/>
      <stop offset="0" stop-color="#3ed678"/>
      <stop offset="1" stop-color="#1d976c"/>
    </linearGradient>
    <filter id="Subtraction_25" x="0" y="0" width="1142.744" height="912.225" filterUnits="userSpaceOnUse">
      <feOffset dy="-10" input="SourceAlpha"/>
      <feGaussianBlur stdDeviation="10" result="blur"/>
      <feFlood flood-color="#1d976c" flood-opacity="0.122"/>
      <feComposite operator="in" in2="blur"/>
      <feComposite in="SourceGraphic"/>
    </filter>
    <filter id="Subtraction_28" x="450.491" y="0" width="692.253" height="576.021" filterUnits="userSpaceOnUse">
      <feOffset dy="-10" input="SourceAlpha"/>
      <feGaussianBlur stdDeviation="10" result="blur-2"/>
      <feFlood flood-color="#1d976c" flood-opacity="0.122"/>
      <feComposite operator="in" in2="blur-2"/>
      <feComposite in="SourceGraphic"/>
    </filter>
  </defs>
  <g id="Group_28" data-name="Group 28" transform="translate(-807.756 40.501)">
    <path id="Subtraction_27" data-name="Subtraction 27" class="cls-1" d="M1108.034,1210.1h0v0l-.038-.048-.056-.073a418.894,418.894,0,0,1-25.691-37.479,445.762,445.762,0,0,1-23.025-43.048,488.217,488.217,0,0,1-19.659-49,551.5,551.5,0,0,1-15.594-55.328C1001.048,924.312,953.964,855.481,918.5,815.491c-43.732-49.315-95.721-83.984-142.637-95.119-16.221-3.85-39.956-8.552-70.547-13.976-24.494-4.343-53.366-9.147-85.813-14.28-55.971-8.854-102.538-15.524-102.983-15.587-.087-.005-9.126-.637-24.641-4.852a265.6,265.6,0,0,1-28.347-9.544,341.832,341.832,0,0,1-36.851-17.382c-31.4-17.087-62.575-39.814-92.669-67.55a640.439,640.439,0,0,1-52.547-54.808c-9.137-10.7-18.258-22.027-27.111-33.677-9.254-12.179-18.471-25.047-27.4-38.245-68.99-102.029-94.69-113.088-130.26-128.4l-.021-.009a342.559,342.559,0,0,1-34.5-16.555,191.615,191.615,0,0,1-32.915-23.351A182.406,182.406,0,0,1,10,262.5H1108.034Z" transform="translate(812.466 -263)"/>
    <g class="cls-5" transform="matrix(1, 0, 0, 1, 807.76, -40.5)">
      <path id="Subtraction_25-2" data-name="Subtraction 25" class="cls-2" d="M1092.744,999.724h0v0c-7.664-10.059-15.07-20.388-22.013-30.7-9.392-13.952-18.237-28.318-26.291-42.7-8.483-15.147-16.33-30.737-23.321-46.339-7.332-16.364-13.927-33.192-19.6-50.016a551.581,551.581,0,0,1-15.126-53.725C948.537,609.749,838.917,552.878,753.622,534.487a271.6,271.6,0,0,0-57.133-6.145,255.377,255.377,0,0,0-26.3,1.346c-6.885.716-13.613,1.713-20,2.963a138.782,138.782,0,0,0-17.171,4.309c-.057.014-5.778,1.452-15.911,2.888a308.889,308.889,0,0,1-42.746,2.889,338.069,338.069,0,0,1-61.591-5.674,334,334,0,0,1-35.673-8.681,330.073,330.073,0,0,1-37.709-13.99c-59.459-26.3-110.932-70.1-152.989-130.195-85.686-122.433-175.417-186.023-235.6-217.809A406.386,406.386,0,0,0,10,147.5H1092.744Z" transform="translate(20 -107.5)"/>
    </g>
    <g class="cls-4" transform="matrix(1, 0, 0, 1, 807.76, -40.5)">
      <path id="Subtraction_28-2" data-name="Subtraction 28" class="cls-3" d="M642.253,717.52h0v0a463.825,463.825,0,0,1-35.364-45.9c-6.534-9.7-12.688-19.7-18.291-29.7-5.9-10.537-11.362-21.383-16.225-32.235-5.1-11.378-9.687-23.083-13.635-34.792a383.471,383.471,0,0,1-10.524-37.373C521.879,421.7,445.61,382.141,386.265,369.351a189.014,189.014,0,0,0-39.74-4.272,169.811,169.811,0,0,0-32.225,3,97.933,97.933,0,0,0-11.946,3c-.033.009-4.01,1.01-11.079,2.012a214.967,214.967,0,0,1-29.752,2.011h-.014a235.179,235.179,0,0,1-42.839-3.947,230.4,230.4,0,0,1-51.054-15.769c-41.366-18.293-77.174-48.762-106.431-90.56A575.466,575.466,0,0,0,10,201.5H642.253Z" transform="translate(470.49 -161.5)"/>
    </g>
  </g>
</svg>
