<svg xmlns="http://www.w3.org/2000/svg" xmlns:xlink="http://www.w3.org/1999/xlink" viewBox="0 0 500 100"><defs><style>.a{clip-path:url(#b);}.b{fill:#1d976c;font-size:72px;font-family:SegoeUI-Bold, Segoe UI;font-weight:700;letter-spacing:0.03em;}.c{fill:#3fa876;}.d{fill:rgba(34,34,34,0);}</style><clipPath id="b"><rect width="500" height="100"/></clipPath></defs><g id="a" class="a"><rect class="d" width="500" height="100"/><g transform="translate(28.368)"><text class="b" transform="translate(117 79)"><tspan x="0" y="0">Syncore</tspan></text><g transform="translate(22.821 2.333)"><path class="c" d="M50.026,12.667A40.215,40.215,0,0,0,34.531,89.992l3.019-4.861A34.521,34.521,0,1,1,50.026,87.5c-.058,0-.112-.01-.168-.01L79.239,39.8l-20.289,0L53.2,49.066h0l-1.934,3.122-.182.285L47.3,58.582l-.014-.007-2.927,4.712L33.406,45.614l6.574.009,1.965,3.151,7.091.014L43.223,39.8,22.931,39.8l18,29.021-.01.014,3.427,5.535,3.44-5.549,0-.006,3.291-5.3.008.014,11.11-17.91,6.57.006L41.518,89.51l.138.055L40.24,91.847a40.2,40.2,0,1,0,9.786-79.18Z" transform="translate(-6 -6)"/></g></g></g></svg>